<svg width="55" height="55" viewBox="0 0 55 55" fill="none" xmlns="http://www.w3.org/2000/svg">
<path d="M50.645 13.6689C47.7047 9.06033 43.4491 5.21217 38.5678 3.25353L37.124 2.76272C35.5277 2.2669 33.8676 2.00991 32.1969 2C26.91 2.02304 22.6291 6.42423 22.6291 11.8508C22.6227 14.0139 23.3206 16.1196 24.616 17.8466L24.0201 17.0585C24.3043 17.4871 24.616 17.9111 24.9758 18.3397C26.4952 20.1877 28.6516 22.1072 31.4429 24.2847C38.3157 29.6307 42.7707 34.3729 43.1397 40.2534C43.2268 41.0461 43.2818 41.8572 43.2818 42.6752C43.2818 45.6639 42.6332 48.8277 41.5309 51.0513H41.5424C41.5424 51.0513 41.068 51.92 41.3659 52.1735C41.5172 52.3048 41.8472 52.4039 42.4201 52.0514C45.4968 50.0373 48.1452 47.4291 50.2118 44.3781C53.2594 39.8619 54.923 34.5463 54.9969 29.0892C55.0782 23.6313 53.5642 18.2695 50.6427 13.6689H50.645ZM29.7998 33.7576L25.496 30.186C16.4805 23.5727 11.7917 16.4386 14.3607 7.64319C14.5949 6.84594 14.8781 6.06406 15.2086 5.30204V5.29282C15.2086 5.29282 15.8457 3.94942 14.4592 4.61306C10.3007 6.88372 6.79125 10.1894 4.26663 14.2138C1.74201 18.2382 0.286693 22.8467 0.0399101 27.5983C-0.28375 33.6612 1.36806 39.6648 4.74475 44.6984C6.10795 46.6234 7.77544 48.3109 9.68104 49.6941H9.67188C19.1778 56.7291 27.3316 53.0261 27.3316 53.0261H27.3385C29.3603 52.168 31.084 50.7269 32.2921 48.8847C33.5002 47.0425 34.1385 44.8818 34.1265 42.6752C34.1357 40.9541 33.7499 39.2541 32.9991 37.7074C32.2483 36.1607 31.1527 34.8091 29.7975 33.7576H29.7998Z" fill="url(#paint0_linear_1611_1619)"/>
<defs>
<linearGradient id="paint0_linear_1611_1619" x1="5.6068" y1="44.9126" x2="53.0797" y2="8.81444" gradientUnits="userSpaceOnUse">
<stop stop-color="#C6C1FF"/>
<stop offset="1" stop-color="#FEC1FF"/>
</linearGradient>
</defs>
</svg>
