<svg width="32" height="32" viewBox="0 0 32 32" fill="none" xmlns="http://www.w3.org/2000/svg">
<path d="M14.5482 8.72502L9.98113 3.45358C9.45463 2.84612 8.48938 2.84882 7.87784 3.46168L4.12216 7.22391C3.00436 8.34299 2.68442 10.0047 3.33106 11.3371C7.19423 19.3353 13.6451 25.7949 21.6383 29.669C22.9694 30.3156 24.6299 29.9957 25.7477 28.8766L29.5385 25.0793C30.1527 24.4651 30.1541 23.4945 29.5412 22.968L24.2492 18.4255C23.6957 17.9504 22.8358 18.0125 22.2809 18.5686L20.4395 20.4126C20.3452 20.5114 20.2212 20.5765 20.0863 20.598C19.9514 20.6195 19.8133 20.5961 19.693 20.5314C16.6831 18.7982 14.1863 16.2984 12.457 13.2864C12.3922 13.1659 12.3688 13.0275 12.3903 12.8924C12.4117 12.7573 12.4769 12.633 12.5758 12.5385L14.4118 10.7013C14.968 10.1424 15.0287 9.27848 14.5482 8.72367V8.72502Z" stroke="#333743" stroke-width="2" stroke-linecap="round" stroke-linejoin="round"/>
</svg>
