<svg width="32" height="32" viewBox="0 0 32 32" fill="none" xmlns="http://www.w3.org/2000/svg">
<path d="M15.2104 0.00465694C12.6738 0.0356608 7.22031 0.457713 4.17006 3.29106C1.90114 5.56734 1.10894 8.93276 1.01609 13.0943C0.939045 17.2408 0.846194 25.0277 8.25945 27.148V30.3774C8.25945 30.3774 8.21302 31.6696 9.05658 31.9346C10.0957 32.2676 10.6874 31.2735 11.6752 30.2054L13.5174 28.0961C18.5896 28.5232 22.4745 27.5391 22.922 27.393C23.9512 27.06 29.7485 26.3099 30.6958 18.5219C31.6678 10.479 30.2226 5.41132 27.6139 3.11904H27.5981C26.8109 2.38495 23.647 0.0506626 16.5785 0.0246594C16.5785 0.0246594 16.054 -0.011345 15.2104 0.00365681V0.00465694ZM15.2973 2.26594C16.0174 2.26094 16.455 2.29194 16.455 2.29194C22.438 2.30794 25.2936 4.13117 25.9673 4.74524C28.1641 6.65148 29.2961 11.22 28.4674 17.9349C27.6801 24.4457 22.9783 24.8577 22.1081 25.1388C21.7376 25.2588 18.316 26.1129 14.0053 25.8318C14.0053 25.8318 10.7951 29.7543 9.79149 30.7645C9.63246 30.9415 9.44675 30.9935 9.32822 30.9675C9.15832 30.9255 9.10696 30.7124 9.11684 30.4204L9.14746 25.0607C2.86027 23.3005 3.23068 16.6587 3.29785 13.1893C3.3749 9.71986 4.01794 6.88151 5.93225 4.95927C8.50936 2.59998 13.14 2.28194 15.2954 2.26594H15.2973ZM15.7715 5.73436C15.7197 5.73384 15.6684 5.74368 15.6204 5.76334C15.5725 5.78299 15.5288 5.81206 15.492 5.84888C15.4552 5.8857 15.4259 5.92953 15.4059 5.97785C15.3859 6.02617 15.3755 6.07802 15.3754 6.13041C15.3754 6.35444 15.5552 6.53146 15.7715 6.53146C16.7509 6.5126 17.7242 6.69025 18.6355 7.05415C19.5467 7.41806 20.3778 7.96102 21.0808 8.65172C22.516 10.0629 23.2154 11.9591 23.242 14.4384C23.242 14.6575 23.4169 14.8395 23.6381 14.8395V14.8235C23.7424 14.8238 23.8426 14.7823 23.9168 14.7081C23.991 14.6339 24.0332 14.533 24.0342 14.4274C24.0822 13.2604 23.8953 12.0958 23.4848 11.0042C23.0744 9.9126 22.4491 8.91692 21.6468 8.07765C20.0831 6.53046 18.1016 5.73336 15.7715 5.73336V5.73436ZM10.5649 6.65148C10.2853 6.61011 10.0002 6.66694 9.75692 6.8125H9.73617C9.17142 7.14768 8.66267 7.57131 8.22883 8.06765C7.86829 8.4897 7.67271 8.91676 7.62135 9.32781C7.59072 9.57284 7.61147 9.81787 7.68358 10.0519L7.70926 10.0679C8.11523 11.276 8.64567 12.4382 9.29365 13.5323C10.1283 15.0695 11.1556 16.4911 12.3498 17.7618L12.3854 17.8139L12.4417 17.8559L12.4773 17.8979L12.5187 17.9339C13.7784 19.1466 15.1858 20.1915 16.7069 21.0433C18.4454 22.0014 19.5003 22.4544 20.1335 22.6425V22.6525C20.3192 22.7095 20.4881 22.7355 20.658 22.7355C21.1976 22.6954 21.7085 22.4736 22.109 22.1054C22.597 21.666 23.0108 21.1488 23.3339 20.5742V20.5642C23.6371 19.9861 23.5344 19.4391 23.0968 19.069C22.2205 18.2934 21.2728 17.6045 20.2668 17.0118C19.5932 16.6417 18.9087 16.8657 18.6311 17.2408L18.0394 17.9959C17.7362 18.3709 17.185 18.3189 17.185 18.3189L17.1692 18.3289C13.059 17.2658 11.9626 13.0523 11.9626 13.0523C11.9626 13.0523 11.9113 12.4792 12.2915 12.1872L13.0324 11.5831C13.387 11.291 13.6339 10.599 13.2536 9.91588C12.6722 8.89591 11.9933 7.93619 11.2267 7.05053C11.0591 6.84173 10.824 6.69967 10.5629 6.64948L10.5649 6.65148ZM16.455 7.83962C15.9305 7.83962 15.9305 8.64172 16.46 8.64172C17.1122 8.65243 17.7559 8.79318 18.3544 9.05591C18.9528 9.31864 19.4943 9.6982 19.9478 10.1729C20.3615 10.635 20.6794 11.1764 20.8827 11.7651C21.0859 12.3539 21.1704 12.9779 21.1311 13.6003C21.133 13.7057 21.1754 13.8061 21.2495 13.8801C21.3235 13.9541 21.4232 13.9959 21.5272 13.9964L21.5431 14.0174C21.6479 14.0166 21.7482 13.9741 21.8223 13.8991C21.8964 13.824 21.9384 13.7225 21.9391 13.6163C21.9747 12.0271 21.4867 10.694 20.5296 9.62584C19.5675 8.55771 18.2251 7.95864 16.5113 7.83962H16.455ZM17.104 9.99589C16.5637 9.97989 16.5429 10.798 17.0783 10.814C18.3802 10.882 19.0124 11.5481 19.0953 12.9183C19.0972 13.0223 19.1391 13.1214 19.2122 13.1945C19.2853 13.2676 19.3838 13.3088 19.4865 13.3093H19.5023C19.5551 13.307 19.607 13.2941 19.6548 13.2713C19.7026 13.2485 19.7455 13.2163 19.7809 13.1765C19.8163 13.1368 19.8435 13.0903 19.861 13.0397C19.8785 12.9892 19.8858 12.9357 19.8826 12.8822C19.7898 11.096 18.8277 10.0899 17.1198 9.99689H17.104V9.99589Z" fill="#333743"/>
</svg>
