<svg width="413" height="239" viewBox="0 0 413 239" fill="none" xmlns="http://www.w3.org/2000/svg">
<path d="M25.4341 238.487C25.4341 238.487 -22.6428 186.284 17.3039 129.769C52.7452 79.6339 77.8257 106.322 111.755 56.7583C193.014 -61.9306 399.249 26.067 371.937 133.127C358.715 184.92 412.163 186.812 384.925 238.59L25.4341 238.487Z" fill="url(#paint0_linear_202_770)"/>
<path opacity="0.5" d="M324.506 172.045C322.583 173.643 308.436 180.169 309.684 181.826C310.916 183.468 321.806 181.855 326.311 177.676C326.311 177.676 327.368 194.877 319.355 197.809C311.342 200.742 306.69 197.135 301.774 199.041C296.857 200.947 293.996 203.88 296.989 204.027C299.968 204.159 307.585 199.466 312.971 200.889C318.372 202.311 322.437 202.839 316.009 207.693C309.596 212.561 296.388 217.752 291.207 213.5C290.982 213.314 290.767 213.138 290.561 212.972C290.928 213.353 291.207 213.5 291.207 213.5C290.268 214.893 290.048 219.483 290.018 222.943C290.048 223.515 290.063 224.322 290.033 225.421C290.033 225.431 290.033 225.436 290.033 225.436C290.033 225.92 290.048 226.316 290.048 226.594C290.048 226.604 290.048 226.609 290.048 226.609C290.048 226.619 290.048 226.624 290.048 226.624C290.077 227.064 290.131 227.513 290.209 227.973L288.712 228.691C288.522 226.037 288.756 224.307 288.756 224.307C289.182 215.362 286.041 209.247 286.041 209.247C286.041 209.247 268.68 208.133 270.089 194.686C270.089 194.686 272.144 185.873 276.84 181.606C276.84 181.606 281.345 198.499 284.427 197.472C287.524 196.446 278.058 179.01 278.058 179.01C278.058 179.01 289.167 165.182 295.082 163.027C295.082 163.027 293.379 182.442 296.124 180.682C298.868 178.922 301.583 158.804 301.583 158.804C301.583 158.804 315.055 149.008 321.615 156.619C328.175 164.244 326.443 170.447 324.506 172.045V172.045Z" fill="#AFCDFB"/>
<path d="M74.5218 134.653C76.2388 117.848 104.24 118.435 104.24 118.435C104.24 118.435 127.295 143.583 132.769 143.378C138.257 143.172 117.257 118.039 117.257 118.039C127.5 115.326 156.088 123.743 156.088 123.743C156.088 123.743 159.786 156.868 165.04 155.314C170.294 153.774 160.271 126.148 160.271 126.148C170.822 127.526 182.137 137.717 182.137 137.717C197.003 154.918 174.154 173.101 174.154 173.101C174.154 173.101 175.68 184.554 184.867 196.475C184.867 196.475 186.848 198.631 189.137 202.473L186.393 202.913C186.051 202.219 185.684 201.549 185.292 200.904C185.283 200.894 185.278 200.884 185.278 200.874C185.014 200.479 184.647 199.921 184.192 199.232C183.076 197.736 182.313 196.607 181.814 195.801C181.814 195.791 181.814 195.786 181.814 195.786C178.454 191.05 173.743 184.935 171.101 183.923C171.101 183.923 171.336 183.454 171.483 182.574C171.356 183.004 171.228 183.454 171.101 183.923C168.049 194.745 144.832 200.259 131.316 199.716C117.8 199.173 122.892 194.554 128.953 187.413C135.029 180.286 150.042 179.451 154.019 176.386C157.996 173.336 151.245 172.031 142.631 174.113C134.016 176.21 131.081 185.639 117.213 189.29C103.344 192.927 88.2727 168.204 88.2727 168.204C98.4869 169.626 115.055 161.414 115.188 157.954C115.305 154.493 89.5348 159.053 85.3376 158.701C81.1551 158.349 72.79 151.457 74.5218 134.653V134.653Z" fill="#DFEBFA"/>
<path d="M284.34 67.8729C281.816 70.9376 261.769 85.3522 264.205 87.5517C266.627 89.7513 283.078 83.9591 288.845 76.0993C288.845 76.0993 295.669 102.553 284.076 109.533C272.482 116.513 264.176 112.29 257.088 116.733C249.999 121.176 246.448 126.601 251.129 125.927C255.811 125.252 266.26 115.648 275.08 116.249C283.9 116.835 290.386 116.425 281.86 125.927C273.333 135.429 254.329 147.483 244.995 142.424C244.594 142.209 244.207 141.998 243.836 141.793C244.525 142.277 244.995 142.424 244.995 142.424C243.938 144.887 244.98 152.087 245.978 157.469C245.978 157.479 245.978 157.483 245.978 157.483C246.198 158.363 246.462 159.61 246.756 161.355C246.903 162.117 247.049 162.733 247.138 163.158C247.147 163.168 247.152 163.178 247.152 163.188C247.152 163.197 247.152 163.202 247.152 163.202C247.328 163.887 247.544 164.571 247.798 165.255L245.685 166.824C244.584 162.748 244.437 159.991 244.437 159.991C242.412 145.943 235.661 137.379 235.661 137.379C235.661 137.379 208.306 140.855 206.457 119.504C206.457 119.504 207 105.148 213.017 97.0979C213.017 97.0979 225.11 122.056 229.615 119.519C234.12 116.982 214.132 92.6841 214.132 92.6841C214.132 92.6841 227.238 67.8436 235.808 62.6966C235.808 62.6966 239.007 93.4173 242.764 89.854C246.506 86.2907 244.643 54.1622 244.643 54.1622C244.643 54.1622 262.664 34.85 275.182 44.7334C287.686 54.6168 286.849 64.8082 284.34 67.8729V67.8729Z" fill="#DFEBFA"/>
<path d="M133.445 213.882C133.093 206.623 145.053 205.054 145.053 205.054C145.053 205.054 156.5 214.263 158.819 213.823C161.138 213.383 150.571 204.043 150.571 204.043C154.754 202.224 167.463 203.955 167.463 203.955C167.463 203.955 171.191 217.827 173.333 216.815C175.461 215.818 169.4 204.717 169.4 204.717C173.994 204.614 179.467 208.222 179.467 208.222C186.908 214.571 178.367 223.809 178.367 223.809C178.367 223.809 179.761 228.575 184.442 233.062C184.442 233.062 185.426 233.854 186.644 235.335L185.514 235.702C185.318 235.428 185.118 235.169 184.912 234.925C184.902 234.915 184.897 234.91 184.897 234.91C184.765 234.763 184.575 234.543 184.34 234.279C184.33 234.279 184.325 234.279 184.325 234.279C183.767 233.707 183.371 233.282 183.092 232.974C181.361 231.171 178.954 228.868 177.765 228.604C177.765 228.604 177.839 228.399 177.839 228.003C177.819 228.199 177.794 228.399 177.765 228.604C177.163 233.414 167.639 237.271 161.842 237.916C156.06 238.561 157.924 236.259 160.052 232.828C162.165 229.396 168.505 228.062 170.002 226.508C171.499 224.953 168.534 224.836 164.997 226.273C161.475 227.725 160.83 231.933 155.165 234.382C149.5 236.831 141.473 227.285 141.473 227.285C145.919 227.226 152.435 222.651 152.274 221.17C152.098 219.689 141.414 223.296 139.609 223.428C137.804 223.545 133.797 221.155 133.445 213.882V213.882Z" fill="#D9E8FA"/>
<path d="M160.011 83.2402L164.076 91.5693L142.533 101.013C140.595 101.907 139.289 103.799 139.187 105.925C139.084 108.081 138.555 110.515 136.736 110.764C133.419 111.219 132.905 103.491 133.874 101.291C136.633 95.0739 144.44 92.889 149.166 90.4695C151.235 89.399 160.011 83.2402 160.011 83.2402V83.2402Z" fill="#ED7D2B"/>
<path d="M362.723 238.017H232.288C232.288 239.572 208.807 238.017 208.807 238.017C208.807 238.017 210.465 229.996 214.383 227.738C215.264 227.225 221.78 228.779 223.38 228.72C222.704 228.295 208.895 224.013 211.991 202.912L204.624 236.932C204.522 237.563 203.979 238.017 203.347 238.017H174.466C173.835 238.017 173.307 237.577 173.189 236.962C172.764 234.674 172.045 229.219 174.319 226.448C176.11 224.263 181.76 224.761 185.869 225.465C186.794 225.626 187.645 225.788 188.349 225.949C189.288 226.154 190.125 225.289 189.875 224.351C189.875 224.351 187.718 218.045 183.814 209.291C179.911 200.522 174.231 189.319 167.187 179.479C165.764 177.514 164.296 175.608 162.784 173.775C157.325 167.22 153.627 151.457 158.396 144.492C159.027 143.582 161.845 140.576 160.833 141.016C158.749 141.94 157.252 143.45 156.224 144.873C155.505 145.855 153.935 145.371 153.891 144.14C153.319 127.701 165.734 113.654 170.606 106.498C172.206 104.166 172.984 102.553 172.265 101.835C169.124 98.7258 155.285 106.615 149.033 106.395C145.321 106.263 142.518 104.958 140.83 103.917C140.463 103.682 140.258 103.301 140.228 102.92C140.199 102.436 140.434 101.937 140.918 101.673C144.513 99.8109 149.943 97.5233 154.243 94.4293C156.401 92.8749 158.338 90.1474 159.453 87.7572C160.304 85.9536 160.011 83.754 160.011 83.754C155.168 87.8892 148.769 91.3059 143.295 93.1682C139.656 94.4 136.427 94.9572 134.343 94.5906C128.957 93.6228 125.567 88.6811 123.66 84.6778C122.838 82.9182 122.28 81.3492 121.972 80.352C121.781 79.7215 122.075 79.0616 122.676 78.783C123.557 78.4017 124.936 77.7712 126.639 76.994C134.519 73.3721 143.251 70.4979 144.822 67.9904C145.35 67.1399 145.849 66.1868 146.333 65.1603C146.333 65.1603 146.338 65.1603 146.348 65.1603C148.681 60.2773 150.956 53.8545 157.501 48.6782C167.671 40.6131 178.047 39.0734 182.362 38.8094C183.697 38.7215 184.46 38.7508 184.46 38.7508C191.211 38.4868 196.215 39.484 199.943 41.4196C199.943 41.4196 199.948 41.4196 199.957 41.4196C214.398 48.9275 209.702 70.5273 212.725 87.0094C212.843 87.6546 212.975 88.29 213.121 88.9157C214.369 94.3706 230.292 109.152 230.923 118.141C232.126 135.268 244.967 136.881 273.35 154.214C289.742 164.244 290.916 191.416 289.449 212.077C289.082 217.195 292.677 221.755 297.74 222.606C304.638 223.749 312.313 224.219 319.387 222.914C338.802 219.306 342.867 186.371 331.127 181.415C331.127 181.415 351.056 175.549 360.728 190.888C370.413 206.226 370.413 230.568 362.723 238.017V238.017Z" fill="#F1A34F"/>
<path d="M190.901 43.502C194.922 43.502 198.489 46.2734 199.663 50.3206C203.434 63.4447 209.657 91.5699 196.052 98.8578C188.685 102.788 177.209 97.9194 174.626 84.6339C172.894 75.7183 174.259 62.7555 175.639 53.7813C176.549 47.8571 181.436 43.502 187.144 43.502H190.901Z" fill="#ED7D2B"/>
<path d="M156.152 66.5675C155.771 66.5675 155.389 66.4062 155.125 66.0982C154.641 65.541 154.699 64.6758 155.257 64.1919C155.418 64.0453 159.322 60.7459 165.632 62.2416C166.366 62.4176 166.821 63.1361 166.645 63.8693C166.469 64.6025 165.735 65.0424 165.016 64.8665C160.026 63.6934 157.062 66.2009 157.033 66.2302C156.783 66.4501 156.46 66.5675 156.152 66.5675V66.5675Z" fill="#E07F20"/>
<path d="M123.66 84.6633C122.823 82.9183 122.28 81.3493 121.972 80.3521C121.781 79.7216 122.075 79.0617 122.676 78.7831C123.557 78.4019 124.936 77.7713 126.639 76.9941C126.639 76.9941 127.739 83.2849 123.66 84.6633V84.6633Z" fill="#BC6211"/>
<path d="M362.736 238.016H339.784C365.979 232.635 360.491 212.56 360.491 212.56C357.776 217.516 342.66 218.426 342.66 218.426C342.66 218.426 352.815 208.953 351.905 194.978C351.172 183.614 337.905 181.751 332.959 181.458C331.829 181.399 331.125 181.414 331.125 181.414C331.125 181.414 351.054 175.549 360.725 190.887C370.411 206.225 370.411 230.567 362.736 238.016V238.016Z" fill="#FFDABB"/>
<path d="M199.945 41.4199C199.945 41.4199 212.713 44.7779 215.428 54.9253C215.428 54.9253 213.726 53.2829 212.522 52.7844C212.522 52.7844 215.81 55.5852 215.428 62.7118C215.032 69.8237 211.011 81.1442 213.124 88.916L205.096 74.9854L199.945 41.4199Z" fill="#F1A34F"/>
<path d="M146.336 65.1605C146.336 65.1605 150.019 55.8929 146.336 52.4323C146.336 52.4323 148.904 51.6844 150.181 52.4323C150.181 52.4323 150.636 45.3643 159.661 42.2116C168.687 39.0442 182.379 38.7949 182.379 38.7949L158.751 56.3328L146.336 65.1605Z" fill="#F1A34F"/>
<path d="M333.329 83.9453H311.932C310.949 83.9453 310.156 83.1388 310.156 82.1563V61.5243C310.156 60.5419 310.949 59.75 311.932 59.75H333.329C334.312 59.75 335.119 60.5419 335.119 61.5243V82.1563C335.119 83.1388 334.312 83.9453 333.329 83.9453V83.9453Z" fill="#C0D8FB"/>
<path d="M332.403 82.8894H312.856C311.96 82.8894 311.227 82.1562 311.227 81.2617V62.4187C311.227 61.5242 311.96 60.791 312.856 60.791H332.403C333.299 60.791 334.032 61.5242 334.032 62.4187V81.2617C334.032 82.1562 333.299 82.8894 332.403 82.8894Z" fill="#DFEBFD"/>
<path d="M322.121 63.0044C322.121 62.7111 322.356 62.4766 322.635 62.4766C322.929 62.4766 323.149 62.7111 323.149 63.0044C323.149 63.2829 322.929 63.5175 322.635 63.5175C322.356 63.5175 322.121 63.2829 322.121 63.0044Z" fill="#B7D3F3"/>
<path d="M326.288 63.7368C326.435 63.4729 326.743 63.385 326.992 63.5316C327.242 63.6635 327.33 63.9861 327.198 64.2353C327.051 64.4845 326.743 64.5725 326.493 64.4259C326.244 64.2939 326.156 63.9861 326.288 63.7368V63.7368Z" fill="#B7D3F3"/>
<path d="M329.87 66.5681C330.105 66.4069 330.428 66.4802 330.574 66.7294C330.736 66.964 330.663 67.2865 330.428 67.4331C330.193 67.5944 329.87 67.5211 329.708 67.2865C329.561 67.0373 329.62 66.7294 329.87 66.5681Z" fill="#B7D3F3"/>
<path d="M331.631 70.9668C331.925 70.9668 332.16 71.1867 332.16 71.4799C332.16 71.7585 331.925 71.9931 331.631 71.9931C331.352 71.9931 331.117 71.7585 331.117 71.4799C331.117 71.1867 331.352 70.9668 331.631 70.9668Z" fill="#B7D3F3"/>
<path d="M330.736 76.0543C330.941 76.2596 330.941 76.5821 330.736 76.7874C330.53 76.9926 330.207 76.9926 330.002 76.7874C329.796 76.5821 329.796 76.2596 330.002 76.0543C330.207 75.8491 330.53 75.8491 330.736 76.0543Z" fill="#B7D3F3"/>
<path d="M327.49 79.3102C327.681 79.5154 327.681 79.838 327.49 80.0432C327.284 80.2485 326.947 80.2485 326.756 80.0432C326.55 79.838 326.55 79.5154 326.756 79.3102C326.947 79.1049 327.284 79.1049 327.49 79.3102Z" fill="#B7D3F3"/>
<path d="M322.121 80.9819C322.121 80.7033 322.356 80.4688 322.635 80.4688C322.929 80.4688 323.149 80.7033 323.149 80.9819C323.149 81.2751 322.929 81.495 322.635 81.495C322.356 81.495 322.121 81.2751 322.121 80.9819Z" fill="#B7D3F3"/>
<path d="M318.758 64.4264C318.508 64.573 318.2 64.485 318.053 64.2358C317.921 63.9866 318.009 63.664 318.259 63.5321C318.509 63.3855 318.817 63.4734 318.964 63.7227C319.096 63.9866 319.008 64.2945 318.758 64.4264Z" fill="#B7D3F3"/>
<path d="M315.547 67.2865C315.385 67.5211 315.077 67.5944 314.827 67.4331C314.592 67.2865 314.519 66.964 314.68 66.7294C314.827 66.4802 315.15 66.4069 315.385 66.5681C315.635 66.7294 315.693 67.0373 315.547 67.2865Z" fill="#B7D3F3"/>
<path d="M314.136 71.4799C314.136 71.7585 313.901 71.9931 313.622 71.9931C313.329 71.9931 313.094 71.7585 313.094 71.4799C313.094 71.1867 313.329 70.9668 313.622 70.9668C313.901 70.9668 314.136 71.1867 314.136 71.4799Z" fill="#B7D3F3"/>
<path d="M315.252 76.0543C315.458 76.2596 315.458 76.5821 315.252 76.7874C315.047 76.9926 314.724 76.9926 314.518 76.7874C314.327 76.5821 314.327 76.2596 314.518 76.0543C314.724 75.8491 315.047 75.8491 315.252 76.0543Z" fill="#B7D3F3"/>
<path d="M318.495 79.3102C318.7 79.5154 318.7 79.838 318.495 80.0432C318.304 80.2485 317.966 80.2485 317.775 80.0432C317.57 79.838 317.57 79.5154 317.775 79.3102C317.966 79.1049 318.304 79.1049 318.495 79.3102Z" fill="#B7D3F3"/>
<path d="M322.5 71.4819C322.5 71.1887 322.72 70.9688 323.014 70.9688C323.293 70.9688 323.528 71.1887 323.528 71.4819C323.528 71.7604 323.293 71.995 323.014 71.995C322.72 71.995 322.5 71.7604 322.5 71.4819Z" fill="#B7D3F3"/>
<path d="M323.088 71.4814H322.941V65.0293H323.088V71.4814Z" fill="#B7D3F3"/>
<path d="M323.073 71.6266L322.809 71.3041L326.243 68.6211L326.507 68.9436L323.073 71.6266Z" fill="#B7D3F3"/>
<path d="M241.441 166.515C241.441 166.515 241.368 166.765 241.001 167.043C240.751 167.381 240.458 167.777 240.399 168.026C240.282 168.495 239.709 168.568 239.577 168.128C239.538 167.982 239.533 167.83 239.563 167.674C238.623 167.879 237.244 167.952 235.204 167.674C235.204 167.674 233.619 167.513 234.896 166.413C235.747 165.68 236.334 165.797 237.552 164.77C238.785 163.759 240.37 163.377 241.412 163.935L242.732 164.052L243.143 166.281L241.441 166.515Z" fill="#FFB27D"/>
<path d="M257.144 122.598C257.144 122.598 267.314 132.716 260.152 150.796C258.229 155.679 242.439 166.868 242.439 166.868C242.439 166.868 240.619 165.211 241.118 163.656C241.118 163.656 251.449 149.506 252.946 148.831C254.282 148.23 252.55 132.29 253.431 128.331C254.311 124.372 257.144 122.598 257.144 122.598V122.598Z" fill="#9DB0F4"/>
<path d="M294.248 227.387C294.248 227.387 296.464 229.41 296.023 230.847C295.598 232.284 293.602 233.238 293.323 234.983C293.059 236.742 291.973 237.695 291.004 237.695C290.036 237.695 286.367 237.695 286.367 237.695C286.367 237.695 285.648 236.464 287.379 236.097C289.111 235.716 289.757 233.663 289.654 231.742C289.551 229.836 289.816 227.284 289.816 227.284L293.484 226.434L294.248 227.387Z" fill="#233862"/>
<path d="M294.245 226.124C293.834 227.312 289.372 229.072 289.372 229.072C289.372 229.072 286.951 225.245 279.173 211.534C278.498 210.346 277.793 209.056 277.074 207.677C269.443 193.013 259.566 168.642 259.566 168.642L278.439 163.393C278.439 163.393 279.334 170.959 279.496 174.786C279.598 177.118 280.919 182.118 282.622 186.488C283.693 189.26 284.911 191.782 286.056 193.204C291.265 199.656 294.245 226.124 294.245 226.124V226.124Z" fill="#B5453C"/>
<path d="M282.622 186.488C281.433 192.5 279.246 202.574 277.074 207.677C269.443 193.013 259.566 168.642 259.566 168.642L278.439 163.393C278.439 163.393 279.334 170.959 279.496 174.786C279.598 177.118 280.919 182.118 282.622 186.488Z" fill="#93312C"/>
<path d="M267.064 232.607C267.064 232.607 267.46 237.212 266.492 237.681L254.047 237.666C254.047 237.666 254.047 236.229 256.043 235.906C258.053 235.584 261.561 234.425 262.148 231.815C262.749 229.205 267.064 232.607 267.064 232.607V232.607Z" fill="#233862"/>
<path d="M274.904 166.576C274.904 166.576 273.392 194.1 272.424 207.18C272.404 207.395 272.385 207.606 272.365 207.811C271.323 220.656 267.669 232.798 267.669 232.798C263.56 233.648 261.505 231.625 261.505 231.625C261.505 231.625 260.639 223.12 260.434 217.812C260.302 214.747 259.04 198.587 257.998 185.434C257.22 175.741 256.574 167.691 256.574 167.691L274.904 166.576Z" fill="#B5453C"/>
<path d="M263.205 120.825C263.205 120.825 256.675 126.778 251.891 126.104C251.891 126.104 252.859 123.978 253.813 122.262C253.505 121.367 253.255 120.59 253.079 119.93C252.639 118.42 252.492 117.54 252.492 117.54L255.163 114.651L257.673 111.895C258.495 118.376 263.205 120.825 263.205 120.825V120.825Z" fill="#FFB27D"/>
<path d="M282.919 177.661C274.656 185.403 255.652 186.62 255.49 186.532C254.536 182.602 253.304 176.077 252.232 170.021C251.777 167.484 251.352 165.05 250.999 162.909C250.28 158.686 249.796 155.65 249.781 155.562C249.781 155.562 249.752 155.328 249.693 154.946C249.62 154.345 249.488 153.377 249.341 152.307C249.194 151.148 249.033 149.873 248.901 148.787C248.842 148.392 248.798 148.025 248.769 147.688C248.769 147.673 248.754 147.658 248.754 147.644C248.695 146.925 248.769 145.254 248.96 143.157C249.018 142.482 249.092 141.764 249.18 141.03C249.18 141.011 249.18 140.991 249.18 140.972C249.679 136.499 250.53 131.074 251.425 128.463C251.895 127.129 253.553 123.184 253.553 123.184C255.182 123.243 256.239 122.598 257.78 121.513C259.453 120.34 261.272 119.079 261.625 119.269C264.281 120.633 266.526 124.284 268.199 129.138C269.153 131.939 283.33 177.279 282.919 177.661V177.661Z" fill="#AEC3FF"/>
<path d="M258.128 114.344C258.128 114.344 256.719 118.303 253.079 119.931C252.639 118.42 252.492 117.54 252.492 117.54L255.163 114.652L258.128 114.344Z" fill="#ED985F"/>
<path d="M248.513 107.979C248.895 106.38 249.834 104.562 254.78 104.782C259.725 104.987 258.742 108.184 258.786 112.92C258.83 117.671 251.081 117.657 251.081 117.657C249.071 117.525 248.132 109.562 248.513 107.979Z" fill="#FFB27D"/>
<path d="M260.24 103.638C260.959 104.694 260.724 110.208 259.756 111.659C258.787 113.096 258.787 113.096 258.787 113.096C258.787 113.096 257.437 112.085 257.525 111.146C257.628 110.193 257.32 108.815 256.542 109.328C255.764 109.841 256.101 110.457 255.426 110.193C254.737 109.929 253.959 107.334 252.11 107.48C250.246 107.627 248.015 109.621 246.944 109.196C245.858 108.771 242.571 104.313 250.085 102.48C255.793 101.101 257.995 101.483 259.125 102.333C258.978 101.82 258.494 101.659 258.494 101.659C259.374 101.732 259.77 102.553 259.917 103.022C260.299 102.978 260.607 103.11 260.607 103.11C260.255 103.184 260.108 103.272 260.049 103.36C260.118 103.457 260.181 103.55 260.24 103.638V103.638Z" fill="#2C3A64"/>
<path d="M251.125 129.505C252.358 120.311 260.004 117.217 260.004 117.217C260.605 117.349 261.633 119.27 261.633 119.27C253.341 123.625 251.125 129.505 251.125 129.505Z" fill="#9DB0F4"/>
<path d="M223.905 147.584L233.62 157.819L229.496 161.412C229.496 161.412 219.326 151.265 219.502 151.147C219.693 151.045 223.905 147.584 223.905 147.584V147.584Z" fill="white"/>
<path d="M219.622 142.761L224.42 147.835L220.091 151.911L215.292 146.852C214.881 146.413 214.911 145.738 215.336 145.327L218.095 142.717C218.536 142.307 219.211 142.321 219.622 142.761V142.761Z" fill="#B0D0FF"/>
<path d="M235.689 157.571L229.159 163.729L227.926 162.424L234.456 156.266L235.689 157.571Z" fill="#1C468A"/>
<path d="M239.331 164.33L235.721 167.732L235.031 167.013L238.641 163.611L239.331 164.33Z" fill="#1C468A"/>
<path d="M238.052 164.844L236.291 166.501L231.551 161.471L233.312 159.814L238.052 164.844Z" fill="#1C468A"/>
<path fill-rule="evenodd" clip-rule="evenodd" d="M219.622 142.761L233.593 157.542C234.004 157.982 233.989 158.657 233.549 159.067L230.79 161.678C230.349 162.088 229.674 162.059 229.263 161.634L215.292 146.852C214.881 146.413 214.911 145.738 215.336 145.327L218.095 142.717C218.536 142.307 219.211 142.321 219.622 142.761ZM219.387 142.981C219.108 142.673 218.624 142.659 218.315 142.952L215.556 145.547C215.248 145.841 215.234 146.325 215.527 146.632L229.498 161.414C229.777 161.722 230.261 161.736 230.569 161.443L233.328 158.833C233.637 158.554 233.651 158.07 233.358 157.762L219.387 142.981Z" fill="#1C468A"/>
<path d="M217.269 143.713L216.374 144.549L215.273 143.39L216.169 142.555L217.269 143.713Z" fill="#1C468A"/>
<path d="M216.097 143.215L215.95 143.362L210.594 137.687L210.741 137.555L216.097 143.215Z" fill="#1C468A"/>
<path d="M219.119 144.695L217.27 146.44L217.094 146.264L218.958 144.52L219.119 144.695Z" fill="#1C468A"/>
<path d="M219.62 145.224L217.771 146.983L217.609 146.807L219.458 145.062L219.62 145.224Z" fill="#1C468A"/>
<path d="M220.159 145.811L218.31 147.555L218.148 147.379L219.998 145.635L220.159 145.811Z" fill="#1C468A"/>
<path d="M220.643 146.322L218.794 148.067L218.633 147.891L220.482 146.146L220.643 146.322Z" fill="#1C468A"/>
<path d="M221.528 146.426L218.857 148.948L218.695 148.772L221.366 146.25L221.528 146.426Z" fill="#1C468A"/>
<path d="M221.643 147.364L219.794 149.109L219.633 148.948L221.482 147.203L221.643 147.364Z" fill="#1C468A"/>
<path d="M222.143 147.906L220.294 149.651L220.133 149.475L221.982 147.73L222.143 147.906Z" fill="#1C468A"/>
<path d="M222.697 148.479L220.833 150.223L220.672 150.062L222.536 148.303L222.697 148.479Z" fill="#1C468A"/>
<path d="M223.185 148.992L221.322 150.737L221.16 150.576L223.024 148.816L223.185 148.992Z" fill="#1C468A"/>
<path d="M224.051 149.095L221.38 151.617L221.219 151.455L223.89 148.934L224.051 149.095Z" fill="#1C468A"/>
<path d="M224.167 150.049L222.318 151.794L222.156 151.618L224.005 149.873L224.167 150.049Z" fill="#1C468A"/>
<path d="M224.681 150.576L222.818 152.321L222.656 152.16L224.52 150.4L224.681 150.576Z" fill="#1C468A"/>
<path d="M225.221 151.15L223.372 152.909L223.211 152.733L225.06 150.988L225.221 151.15Z" fill="#1C468A"/>
<path d="M225.706 151.676L223.857 153.421L223.695 153.245L225.544 151.5L225.706 151.676Z" fill="#1C468A"/>
<path d="M226.589 151.779L223.904 154.301L223.742 154.125L226.428 151.604L226.589 151.779Z" fill="#1C468A"/>
<path d="M226.753 152.776L224.904 154.52L224.742 154.344L226.591 152.6L226.753 152.776Z" fill="#1C468A"/>
<path d="M227.253 153.303L225.404 155.048L225.242 154.886L227.091 153.127L227.253 153.303Z" fill="#1C468A"/>
<path d="M227.792 153.891L225.943 155.635L225.781 155.46L227.63 153.715L227.792 153.891Z" fill="#1C468A"/>
<path d="M228.276 154.402L226.427 156.147L226.266 155.971L228.115 154.227L228.276 154.402Z" fill="#1C468A"/>
<path d="M229.161 154.506L226.49 157.028L226.328 156.852L228.999 154.33L229.161 154.506Z" fill="#1C468A"/>
<path d="M229.19 155.356L227.341 157.1L227.18 156.924L229.029 155.18L229.19 155.356Z" fill="#1C468A"/>
<path d="M229.705 155.884L227.841 157.643L227.68 157.467L229.543 155.723L229.705 155.884Z" fill="#1C468A"/>
<path d="M230.245 156.471L228.396 158.216L228.234 158.04L230.084 156.295L230.245 156.471Z" fill="#1C468A"/>
<path d="M230.729 156.983L228.88 158.727L228.719 158.551L230.568 156.807L230.729 156.983Z" fill="#1C468A"/>
<path d="M231.613 157.086L228.927 159.608L228.766 159.432L231.451 156.91L231.613 157.086Z" fill="#1C468A"/>
<path d="M260.656 135.443C260.583 135.663 255.901 147.864 249.341 152.307C249.194 151.148 249.033 149.873 248.901 148.787C248.842 148.392 248.798 148.025 248.769 147.688C248.769 147.673 248.754 147.658 248.754 147.644C248.695 146.925 248.769 145.253 248.96 143.157C250.178 141.412 251.132 140.165 251.132 140.165L260.656 135.443Z" fill="#9DB0F4"/>
<path d="M221.691 154.756C221.691 154.756 220.957 154.917 220.047 154.888C219.152 154.873 218.33 153.905 217.714 152.85C217.171 151.897 216.819 150.21 217.699 150.152C218.58 150.093 221.397 152.263 221.397 152.263L221.691 154.756Z" fill="#FFB27D"/>
<path d="M221.193 152.644C220.826 152.747 218.815 151.442 219.05 151.31C219.285 151.178 220.386 151.075 220.709 151.134C221.031 151.193 221.589 152.116 221.589 152.116C221.589 152.116 221.574 152.527 221.193 152.644Z" fill="#FFB27D"/>
<path d="M261.903 124.828C261.903 124.828 264.75 140.269 247.008 152.088C242.224 155.27 221.047 155.49 221.047 155.49C221.047 155.49 220.43 152.865 221.854 151.78C221.854 151.78 239.993 145.489 241.754 145.812C243.324 146.105 251.719 130.693 254.991 127.672C258.249 124.666 261.903 124.828 261.903 124.828V124.828Z" fill="#AEC3FF"/>
<path d="M96.7317 186.195C97.4655 186.826 101.501 191.327 104.275 194.084C105.625 195.419 106.917 196.24 106.917 196.24L104.627 196.577C104.627 196.577 93.8407 190.961 92.0503 188.615C91.067 187.339 83.6705 172.836 83.7586 169.082C83.7879 168.408 83.9787 167.821 84.3016 167.293C86.0333 164.434 90.3626 165.035 91.3605 168.232C93.2536 174.303 95.455 185.139 96.7317 186.195Z" fill="#ED985F"/>
<path d="M99.5168 156.207L89.3761 160.504C89.3761 160.504 89.5522 158.993 88.6423 158.964C87.2188 158.935 86.5143 155.342 88.9945 152.585C89.2587 152.292 94.5565 149.667 94.4978 149.902C98.2988 149.095 99.5168 156.207 99.5168 156.207Z" fill="#B5453C"/>
<path d="M90.4196 160.504C90.2582 161.12 91.7845 164.536 93.6482 165.475C95.7468 166.531 95.3359 169.83 95.3359 169.83C95.1892 168.144 93.6776 166.721 93.6776 166.721C96.7741 169.625 92.4302 176.004 92.4302 176.004C93.1493 172.778 82.0693 167.88 81.629 163.965C81.1741 160.049 84.8136 159.815 85.7382 158.598C86.6774 157.395 84.7696 151.016 87.8367 148.48C90.9039 145.943 93.7216 147.6 93.7216 147.6C93.0319 146.867 91.6964 146.5 91.6964 146.5C96.1137 146.5 95.7468 150.459 95.7468 150.459C95.7468 150.459 90.5811 159.888 90.4196 160.504V160.504Z" fill="#B5453C"/>
<path d="M83.3295 235.875L81.1428 235.553C81.1428 235.553 73.7464 229.702 72.6604 218.748C72.543 217.634 72.5137 216.505 72.6017 215.375C72.6164 215.243 72.6017 215.111 72.5283 214.994C72.2788 214.628 71.6918 213.718 70.8993 212.428C70.1215 211.167 68.7714 208.762 67.2892 206.064C64.6329 201.21 61.5364 195.403 60.4651 193.556C57.075 187.661 58.7187 183.702 58.7187 183.702C58.7187 183.702 68.1697 182.763 70.7526 180.49L71.6918 181.927C71.6918 181.927 73.7317 190.99 73.6437 191.034C73.7415 191.346 73.8442 191.659 73.9519 191.972C75.5662 196.958 77.4153 203.19 78.4279 208.263C79.0002 211.123 79.3084 213.601 79.147 215.302C79.0883 215.889 79.1617 216.783 79.3084 217.883C80.233 224.379 83.3295 235.875 83.3295 235.875V235.875Z" fill="#F1A34F"/>
<path d="M87.9418 238.662H78.7843C78.7843 238.662 78.5642 237.269 79.0484 236.198C79.5034 235.186 80.1491 235.157 79.1218 233.559C79.7088 234.16 81.5726 234.409 82.9081 234.233C83.0695 234.497 83.9501 236.257 84.4931 236.653C85.0948 237.078 87.7657 236.931 87.9418 238.662V238.662Z" fill="#233862"/>
<path d="M73.9519 191.972C73.1447 196.386 71.2516 203.732 67.2892 206.064C64.6329 201.21 61.5364 195.403 60.4651 193.556C57.075 187.661 58.7187 183.702 58.7187 183.702C58.7187 183.702 68.1697 182.763 70.7526 180.49L71.6918 181.927C71.6918 181.927 73.7317 190.99 73.6437 191.034C73.7415 191.346 73.8442 191.659 73.9519 191.972V191.972Z" fill="#E58435"/>
<path d="M64.0482 193.013C62.5807 198.204 60.5114 204.906 58.3835 209.979C57.2535 212.663 56.1088 214.892 55.0375 216.211C54.6559 216.651 54.2156 217.428 53.7313 218.44C50.8549 224.335 46.4376 237.987 46.4376 237.987L45.2342 238.295C45.2342 238.295 42.5046 225.127 47.7144 215.449C48.2427 214.452 48.8591 213.499 49.5635 212.604C49.6516 212.501 49.7103 212.384 49.7103 212.252C49.7249 211.827 49.7396 210.742 49.7983 209.217C49.9744 205.052 51.486 191.048 51.7208 187.734C52.2051 180.96 55.7859 178.584 55.7859 178.584C55.7859 178.584 64.1363 183.1 67.5557 182.661L67.5263 184.376C67.5263 184.376 64.151 193.028 64.0482 193.013V193.013Z" fill="#F1A34F"/>
<path d="M87.4978 172.954C81.9211 171.664 85.4873 163.833 85.8101 163.965C86.5879 163.804 88.2756 162.455 89.8019 159.801L90.0073 159.977L93.4414 162.983C93.4414 162.983 92.6489 164.156 91.9738 165.3C91.4602 166.194 91.0053 167.074 91.0786 167.382C91.3575 167.602 88.9947 173.291 87.4978 172.954Z" fill="#FFB27D"/>
<path d="M91.0171 167.133C91.0171 167.133 92.0004 169.054 92.5287 170.74C93.057 172.412 94.3631 177.749 94.3631 177.749C94.3631 177.749 91.6628 180.829 87.9059 180.653C87.9059 180.653 85.8807 177.485 86.5998 174.626C87.3042 171.781 91.0171 167.133 91.0171 167.133Z" fill="#9DB0F4"/>
<path d="M93.4416 162.983C93.4416 162.983 92.6491 164.156 91.974 165.3C89.8461 163.98 89.8461 161.355 90.0075 159.977L93.4416 162.983Z" fill="#ED985F"/>
<path d="M93.531 164.493C93.531 164.493 88.3505 161.619 90.1996 158.423C92.0487 155.226 92.6211 152.704 95.9965 154.405C99.3865 156.106 99.3131 157.689 98.9609 158.907C98.6087 160.124 94.9251 165.153 93.531 164.493V164.493Z" fill="#FFB27D"/>
<path d="M97.6522 161.105C97.1386 160.885 97.9897 159.14 98.1952 158.187C98.3566 157.468 98.0925 156.515 97.9457 156.046C97.6228 156.369 94.5263 159.345 91.2537 159.052C91.2537 159.052 93.0588 158.685 94.7758 157.718C93.9393 157.996 93.0881 158.128 92.325 157.923C89.8595 157.234 89.2578 156.105 89.2578 156.105C89.2578 156.105 91.6646 155.753 93.3376 153.656C93.3376 153.656 96.4635 152.424 98.3713 155.591C98.8703 155.489 99.5894 155.635 99.8242 157.043C100.191 159.169 97.6522 161.105 97.6522 161.105V161.105Z" fill="#B5453C"/>
<path d="M52.5121 238.662H43.3546C43.3546 238.662 43.1345 237.269 43.6188 236.198C44.0737 235.186 44.7928 234.732 44.6167 233.5C45.2037 234.101 46.1576 234.761 47.4784 234.585C47.6398 234.849 48.5204 236.257 49.0634 236.653C49.6651 237.078 52.336 236.931 52.5121 238.662Z" fill="#233862"/>
<path d="M88.163 179.156C86.9889 179.566 85.3306 179.801 83.6429 179.977C81.2214 180.241 78.7413 180.417 77.4352 180.945C77.1857 181.047 76.4372 181.355 75.7034 181.883V181.898C75.7034 181.898 75.6839 181.908 75.6447 181.927C75.3953 182.103 75.1605 182.323 74.9256 182.543C74.5881 182.91 74.2799 183.32 74.0891 183.79C73.6048 184.977 74.2506 188.247 74.6468 190.036C74.8082 190.755 74.4707 191.503 73.8103 191.84C72.9004 192.309 72.0003 192.744 71.11 193.145C71.0709 193.165 71.0269 193.184 70.9779 193.204C70.9877 193.028 70.9926 192.852 70.9926 192.676C70.9926 191.444 70.8312 190.418 70.8312 190.418C70.611 191.649 69.7892 192.998 69.0261 194.04C56.728 198.967 48.1429 196.826 48.2749 194.362C48.7592 185.842 54.5267 178.584 54.5267 178.584C65.2545 166.12 86.9742 162.835 86.9742 162.835C86.9742 162.835 88.0015 162.703 89.2636 164.213C91.0687 166.384 91.1567 166.941 91.1567 166.941C91.1567 166.941 91.6264 177.953 88.163 179.156V179.156Z" fill="#AEC3FF"/>
<path d="M83.6415 179.976C81.22 180.24 78.7399 180.416 77.4337 180.944C76.9054 172.997 80.6623 167.014 80.6623 167.014C80.6623 167.014 83.1132 176.97 83.6415 179.976Z" fill="#9DB0F4"/>
<path d="M74.6424 190.036C74.8039 190.755 74.4663 191.503 73.8059 191.84C72.8961 192.309 71.996 192.744 71.1056 193.145C71.0665 192.998 71.0274 192.842 70.9882 192.676C70.8415 192.045 70.7828 191.297 70.8268 190.417C71.0323 186.634 73.6005 183.775 74.9213 182.543C74.5837 182.91 74.2755 183.32 74.0848 183.789C73.6005 184.977 74.2462 188.247 74.6424 190.036V190.036Z" fill="#9DB0F4"/>
<path d="M86.9688 162.835C86.9688 162.835 87.908 161.633 88.5537 161.677C88.5537 161.677 91.1366 165.284 91.1513 166.941C91.1513 166.941 87.9227 162.659 86.9688 162.835Z" fill="#9DB0F4"/>
<path d="M111.755 197.808C111.755 197.808 110.375 197.837 110.082 197.793C109.788 197.749 109.407 197.617 109.011 197.603C108.629 197.588 108.277 197.72 107.91 197.793C107.861 197.803 107.807 197.808 107.749 197.808H105.474C105.474 197.808 105.239 197.705 104.99 197.295C104.887 197.119 104.872 196.708 104.623 196.576C103.243 195.799 106.912 196.239 106.912 196.239C106.912 196.239 109.216 196.195 109.436 196.357C109.818 196.635 111.843 197.705 111.755 197.808V197.808Z" fill="#ED985F"/>
<path d="M106.765 197.076C106.795 197.589 107.323 198.029 107.514 198.175C107.881 198.469 107.646 198.718 107.646 198.718L107.25 198.469C106.868 198.219 105.474 197.809 105.474 197.809C105.181 197.003 106.751 196.563 106.765 197.076V197.076Z" fill="#ED985F"/>
<path d="M161.423 228.822C161.423 228.822 162.949 233.969 158.048 236.726C158.048 236.726 158.043 236.726 158.033 236.726C157.818 236.853 157.588 236.97 157.343 237.078C153.307 238.94 149.11 233.573 146.982 230.244C145.911 228.558 144.429 227.136 142.653 226.124L115.621 210.668C114.168 209.847 112.524 209.378 110.851 209.319C106.903 209.187 99.4336 208.337 99.14 203.82C98.8172 198.878 103.777 197.94 105.759 197.764C106.258 197.72 106.566 197.72 106.566 197.72C106.566 197.72 106.536 197.647 106.507 197.5C106.214 196.078 104.761 188.071 110.616 188.306C110.734 188.316 110.851 188.325 110.968 188.335C117.118 188.98 119.099 199.67 119.099 199.67L121.036 200.77L151.399 218.132C151.399 218.132 152.603 217.736 154.349 217.384C154.565 217.345 154.79 217.306 155.024 217.267C158.546 216.666 163.654 216.475 165.752 219.818C169.113 225.141 161.423 228.822 161.423 228.822V228.822Z" fill="#F2CCAA"/>
<path d="M161.421 228.823C161.421 228.823 162.947 233.97 158.045 236.727C158.045 236.727 158.04 236.727 158.031 236.727C153.07 237.372 152.645 233.354 150.854 230.817C150.355 230.098 149.915 229.409 149.548 228.823C148.844 227.65 147.846 226.682 146.642 225.978L117.379 209.261C116.675 208.865 115.883 208.66 115.075 208.645C114.679 208.645 114.195 208.645 113.667 208.616C109.675 208.469 102.454 207.56 102.176 203.132C101.97 200.038 103.849 198.513 105.756 197.765C106.011 197.667 106.26 197.579 106.505 197.501C108.134 197.017 109.587 197.032 109.587 197.032C109.587 197.032 108.002 190.536 110.966 188.336C115.927 188.849 118.172 195.917 118.862 198.615C119.023 199.304 119.478 199.891 120.109 200.243L121.034 200.771L151.397 218.133C151.397 218.133 152.601 217.737 154.347 217.385L154.435 217.444C154.435 217.444 154.641 217.37 155.022 217.268C158.544 216.666 163.651 216.476 165.75 219.819C169.111 225.142 161.421 228.823 161.421 228.823V228.823Z" fill="#F9DDBF"/>
<path d="M91.4762 189.274C92.5328 190.344 99.3716 201.9 99.3716 201.9L97.5959 202.985C97.5959 202.985 87.9687 193.952 86.3251 191.327C85.4299 189.875 79.1634 173.906 79.6477 169.991C80.132 166.061 86.1637 165.475 86.1637 165.475C88.2036 166.824 89.8179 187.573 91.4762 189.274Z" fill="#FFB27D"/>
<path d="M89.4945 180.945C87.8802 184.904 83.3308 185.124 83.3308 185.124C83.3308 185.124 74.3934 167.747 82.1274 165.298C89.8761 162.849 89.2597 172.967 89.2597 172.967L89.4945 180.945Z" fill="#AEC3FF"/>
<path d="M99.3749 201.901C99.3749 201.901 100.373 202.795 101.136 202.986C101.899 203.176 102.765 205.347 102.897 205.654C103.044 205.962 102.178 205.523 101.826 204.995C101.488 204.452 101.239 204.247 101.151 204.364C101.048 204.481 101.209 205.933 101.782 206.74C102.354 207.546 102.706 208.265 102.281 208.206C101.87 208.162 99.4043 207.561 98.9053 206.065C98.3917 204.569 98.7585 204.525 97.5992 202.986C96.4398 201.446 99.3749 201.901 99.3749 201.901V201.901Z" fill="#FFB27D"/>
<path d="M128.238 176.371C128.238 176.371 128.458 176.357 128.81 176.547C129.162 176.635 130.278 176.753 130.498 176.709C130.909 176.65 130.806 177.178 130.498 177.427C130.395 177.515 129.926 177.457 129.793 177.486C130.278 178.16 130.806 179.246 131.261 180.976C131.261 180.976 131.672 182.296 130.366 181.636C129.485 181.211 129.383 180.697 128.15 180.067C126.917 179.436 126.081 178.292 126.183 177.266L125.816 176.181L127.475 175.096L128.238 176.371Z" fill="#FFB27D"/>
<path d="M132.992 149.2C132.008 152.587 124.48 159.362 124.861 160.564C125.551 162.734 127.782 175.081 127.782 175.081C127.503 176.474 125.434 176.973 125.434 176.973C125.434 176.973 117.553 161.811 118.595 157.367C122.029 142.718 129.337 137.615 129.337 137.615C129.337 137.615 133.96 145.812 132.992 149.2Z" fill="#9DB0F4"/>
<path d="M124.097 232.827C125.154 235.144 128.074 236.361 129.835 236.669C131.582 236.977 131.626 238.414 131.626 238.414L125.638 238.458C125.638 238.458 120.942 238.458 120.81 238.444C119.871 238.37 119.562 233.472 119.562 233.472C119.562 233.472 122.982 230.393 124.097 232.827Z" fill="#163560"/>
<path d="M120.884 209.746C121.163 208.163 121.486 206.711 121.853 205.464C124.553 196.534 122.44 173.248 122.44 173.248L139.507 180.741L139.537 180.756C139.537 180.756 139.532 180.78 139.522 180.829C139.36 181.768 137.673 191.636 132.125 208.529C130.115 214.644 128.706 219.556 127.708 223.384C125.83 230.672 125.492 233.986 125.492 233.986C125.492 233.986 124.039 234.411 122.454 234.411C121.031 234.411 119.211 233.81 119.211 233.81C119.211 233.81 119.182 219.439 120.884 209.746V209.746Z" fill="#F1A34F"/>
<path d="M121.851 205.464C124.552 196.534 122.438 173.248 122.438 173.248L139.506 180.741C139.516 180.771 139.521 180.8 139.521 180.829C139.359 181.768 137.672 191.636 132.124 208.529C130.114 214.644 128.705 219.556 127.707 223.384L120.883 209.746C121.162 208.163 121.485 206.711 121.851 205.464V205.464Z" fill="#E58435"/>
<path d="M137.422 232.827C138.494 235.144 141.414 236.361 143.161 236.669C144.922 236.977 144.951 238.414 144.951 238.414L138.963 238.458C138.963 238.458 134.282 238.458 134.15 238.444C133.196 238.37 132.902 233.472 132.902 233.472C132.902 233.472 136.307 230.393 137.422 232.827Z" fill="#163560"/>
<path d="M142.575 173.805C142.575 173.805 142.81 188.879 140.198 207.399C137.586 225.92 138.466 233.78 138.466 233.78C138.466 233.78 136.676 234.352 135.942 234.41C134.108 234.572 132.215 233.985 132.215 233.985C132.215 233.985 128.472 215.465 129.544 206.197C130.615 196.93 124.422 174.391 124.422 174.391L142.575 173.805Z" fill="#F1A34F"/>
<path d="M131.408 132.63C131.393 132.424 131.261 131.075 131.261 131.061L132.934 131.794L137.44 133.773C137.44 133.773 137.645 134.844 137.895 136.09C137.914 136.168 137.934 136.252 137.953 136.34C138.232 137.791 138.555 139.404 138.628 139.8L133.8 140.695L130.469 138.51C130.469 138.51 131.716 136.134 131.408 132.63V132.63Z" fill="#FFB27D"/>
<path d="M143.571 174.45C143.513 182.413 142.97 201.036 142.588 201.417C138.435 205.42 120.179 200.317 119.21 195.903C118.256 191.504 122.894 139.374 129.982 137.292C131.449 136.867 139.315 139.404 139.315 139.404C139.315 139.404 140.548 142.63 141.355 146.736C141.458 147.234 141.62 148.73 141.825 150.768C142.03 152.777 142.265 155.285 142.5 157.91C142.75 160.798 142.999 163.804 143.204 166.371C143.351 168.306 143.483 169.978 143.557 171.151C143.586 171.635 143.586 172.823 143.571 174.45V174.45Z" fill="#AEC3FF"/>
<path d="M132.929 131.794L137.434 133.773C137.434 133.773 137.64 134.844 137.889 136.09C137.909 136.168 137.928 136.251 137.948 136.339C136.407 135.812 132.723 134.36 131.74 132.688C131.329 131.999 131.931 131.779 132.929 131.794Z" fill="#FCA56B"/>
<path d="M139.127 133.51C139.127 133.51 131.877 135.768 130.542 131.237C129.206 126.706 127.372 123.949 131.936 122.307C136.515 120.679 137.924 122.131 138.745 123.539C139.552 124.946 140.976 132.806 139.127 133.51Z" fill="#FFB27D"/>
<path d="M138.452 123.098C138.452 123.098 137.997 128.377 136.896 128.142C135.81 127.922 134.827 127.746 134.974 129.345C135.135 130.928 136.647 132.761 133.286 133.04C129.925 133.319 125.097 124.652 126.022 123.025C128.678 118.288 142.312 117.335 138.452 123.098V123.098Z" fill="#163560"/>
<path d="M139.318 139.405L129.984 137.293C129.984 137.293 130.762 135.401 131.379 135.196C131.995 134.991 137.293 137.366 137.396 137.41C138.584 137.909 139.318 139.405 139.318 139.405V139.405Z" fill="#9DB0F4"/>
<path d="M165.25 142.821C165.25 137.425 169.623 133.055 175.024 133.055C180.424 133.055 184.812 137.425 184.812 142.821C184.812 148.217 180.424 152.602 175.024 152.602C169.623 152.602 165.25 148.217 165.25 142.821Z" fill="white"/>
<path d="M168.078 143.291C168.078 139.874 170.852 137.088 174.271 137.088C177.705 137.088 180.479 139.874 180.479 143.291C180.479 146.722 177.705 149.493 174.271 149.493C170.852 149.493 168.078 146.722 168.078 143.291Z" fill="#DFEBFA"/>
<path d="M163.619 188.747C161.917 188.747 160.215 188.146 158.542 186.943C153.934 183.629 149.575 175.858 145.598 163.863C142.648 154.962 141.459 147.835 141.445 147.747L141.195 145.914C141.21 146.002 143.279 154.698 146.214 163.54C148.9 171.678 153.288 182.207 158.879 186.225C161.242 187.926 163.678 188.351 166.1 187.457C176.079 183.835 174.23 151.281 174.201 150.958L174.861 150.885C174.876 150.973 175.36 159.317 174.582 168.027C174.112 173.159 173.305 177.412 172.175 180.667C170.737 184.817 168.756 187.369 166.29 188.263C165.4 188.586 164.51 188.747 163.619 188.747Z" fill="white"/>
<path d="M135.457 129.256C135.457 128.934 135.721 128.67 136.044 128.67C136.367 128.67 136.632 128.934 136.632 129.256C136.632 129.579 136.367 129.843 136.044 129.843C135.721 129.843 135.457 129.579 135.457 129.256Z" fill="white"/>
<path d="M138.907 138.743L138.672 138.435C138.687 138.421 139.391 137.702 138.966 135.708C138.525 133.64 135.928 129.388 135.898 129.344L136.192 129.168C136.295 129.344 138.848 133.508 139.303 135.635C139.758 137.82 138.951 138.699 138.907 138.743Z" fill="white"/>
<path d="M142.502 157.91C138.231 156.56 132.992 149.199 132.992 149.199L141.827 150.768C142.032 152.777 142.267 155.285 142.502 157.91Z" fill="#9DB0F4"/>
<path d="M171.87 146.837C171.87 146.837 171.855 146.602 172.06 146.265C172.163 145.913 172.383 144.901 172.354 144.681C172.266 143.977 172.779 144.124 172.985 144.711C173.029 144.828 173.014 145.165 173.044 145.312C173.733 144.843 174.819 144.344 176.566 143.933C176.566 143.933 177.901 143.552 177.211 144.843C176.757 145.722 176.243 145.81 175.582 147.028C174.907 148.23 173.733 149.036 172.721 148.919L171.62 149.242L170.578 147.57L171.87 146.837Z" fill="#FFB27D"/>
<path d="M138.599 141.104C141.96 142.175 153.216 150.416 154.243 149.683C155.402 148.847 170.562 147.248 170.562 147.248C171.956 147.571 172.397 149.653 172.397 149.653C172.397 149.653 156.327 157.22 151.792 156.663C123.439 153.173 132.67 141.383 132.67 141.383C132.67 141.383 135.238 140.034 138.599 141.104Z" fill="#AEC3FF"/>
<path d="M191.444 238.017H174.465C173.834 238.017 173.305 237.577 173.188 236.962C172.762 234.674 172.043 229.219 174.318 226.448C176.108 224.263 181.759 224.761 185.868 225.465C190.182 230.143 191.444 238.017 191.444 238.017V238.017Z" fill="#FFDABB"/>
<path d="M411.987 239H0.926647C0.662488 239 0.457031 238.795 0.457031 238.531V238.37C0.457031 238.106 0.662488 237.9 0.926647 237.9H411.987C412.252 237.9 412.457 238.106 412.457 238.37V238.531C412.457 238.795 412.252 239 411.987 239Z" fill="#2E3552"/>
<defs>
<linearGradient id="paint0_linear_202_770" x1="41.3312" y1="196.894" x2="264.336" y2="-66.0688" gradientUnits="userSpaceOnUse">
<stop stop-color="#A764AD"/>
<stop offset="1" stop-color="#FEC1FF"/>
</linearGradient>
</defs>
</svg>
