<svg width="412" height="239" viewBox="0 0 412 239" fill="none" xmlns="http://www.w3.org/2000/svg">
<path d="M33.8639 238.608C-2.08568 238.319 -12.8336 165.142 25.2174 147.989C49.4725 137.051 87.0101 136.109 91.9991 122.477C113.014 65.1352 165.631 92.6614 189.26 79.5502C298.119 19.2098 290.355 144.541 353.223 141.586C409.417 138.949 423.646 174.414 392.076 214.849C374.655 237.16 333.876 238.043 333.876 238.043C333.876 238.043 69.7974 238.898 33.8639 238.608Z" fill="#A764AD"/>
<path fill-rule="evenodd" clip-rule="evenodd" d="M144.875 52.1256V54.0235C144.875 55.0666 143.929 55.9214 142.774 55.9214H136.004C134.849 55.9214 133.903 55.0666 133.903 54.0235V52.1256C133.903 51.0825 134.849 50.2278 136.004 50.2278H139.293L123.235 34.6248H65.6289V238.275H51.6244V34.6248H39.7215V39.0579C39.7215 40.101 38.775 40.9558 37.62 40.9558H19.7655C18.6105 40.9558 17.6641 40.101 17.6641 39.0579V27.9895C17.6641 26.9464 18.6105 26.0916 19.7655 26.0916L19.4126 25.628L55.0413 3.92578L140.383 27.1347L140.207 27.6708V34.0742L140.816 34.1177V50.2278H142.774C143.929 50.2278 144.875 51.0825 144.875 52.1256ZM20.8564 26.0916H37.62C38.6467 26.0916 39.5129 26.7725 39.6894 27.6708H138.089L55.2499 5.12824L20.8564 26.0916ZM124.903 34.6392L139.597 48.8949V35.1463L133.245 34.6392H124.903Z" fill="url(#paint0_linear_202_937)"/>
<path d="M110.718 238.231H49.1016C52.0693 236.261 62.705 229.365 72.3621 225.642C76.3565 224.092 80.1744 223.092 83.2063 223.222C92.8313 223.613 106.322 234.479 110.718 238.231Z" fill="#C5C5C5"/>
<path d="M91.1324 238.232H29.5C33.7029 235.436 53.2739 222.803 63.6208 223.223C66.3318 223.325 69.3316 224.266 72.3635 225.643C80.1117 229.149 87.9721 235.523 91.1324 238.232Z" fill="#9B774A"/>
<path fill-rule="evenodd" clip-rule="evenodd" d="M390.681 63.1661V70.7576C390.681 71.4675 390.023 72.0614 389.237 72.0614H376.981C376.195 72.0614 375.554 71.4675 375.554 70.7576V67.7152H367.372V207.404H357.779V67.7152H318.253L307.232 78.4214H309.494C310.296 78.4214 310.938 79.0009 310.938 79.7253V81.0147C310.938 81.7391 310.296 82.3186 309.494 82.3186H304.858C304.056 82.3186 303.414 81.7391 303.414 81.0147V79.7253C303.414 79.0009 304.056 78.4214 304.858 78.4214H306.189V67.3675L306.606 67.3385V62.9488L306.494 62.5866L365.03 46.6504L389.478 61.5435L389.237 61.8622C390.023 61.8622 390.681 62.4417 390.681 63.1661ZM308.066 62.9488H375.57C375.682 62.3258 376.276 61.8622 376.981 61.8622H388.483L364.886 47.4907L308.066 62.9488ZM317.114 67.7152H311.387L307.039 68.0629V77.4942L317.114 67.7152Z" fill="#A764AD"/>
<path d="M273.35 11.3145V238.449H192.516V11.3145H273.35Z" fill="url(#paint1_linear_202_937)"/>
<path opacity="0.5" d="M251.02 42.6504V75.9281H192.516V42.6504H251.02Z" fill="url(#paint2_linear_202_937)"/>
<path opacity="0.5" d="M192.516 103.584H251.02V136.862H192.516V103.584Z" fill="url(#paint3_linear_202_937)"/>
<path opacity="0.5" d="M192.516 163.736H251.02V197.014H192.516V163.736Z" fill="url(#paint4_linear_202_937)"/>
<path d="M374.108 238.449H363.199H273.35V238.58H251.02V11.3145H273.35V166.026H363.199V196.798H374.108V238.449Z" fill="url(#paint5_linear_202_937)"/>
<path d="M411.599 239.001H0.401043C0.176459 239.001 0 238.827 0 238.624C0 238.436 0.176459 238.262 0.401043 238.262H411.599C411.824 238.262 412 238.436 412 238.624C412 238.827 411.824 239.001 411.599 239.001Z" fill="#283250"/>
<path d="M290.047 238.275C290.047 238.275 290.207 235.131 291.138 233.436C292.084 231.756 299.544 232.915 299.544 232.915C299.544 232.915 301.276 235.725 301.035 238.261L290.047 238.275Z" fill="#6138A3"/>
<path d="M270.012 238.275C270.012 238.275 270.172 235.131 271.103 233.436C272.033 231.756 279.508 232.915 279.508 232.915C279.508 232.915 281.225 235.725 281 238.261L270.012 238.275Z" fill="#6138A3"/>
<path d="M294.893 104.845C293.963 105.454 285.509 109.423 285.509 109.423L276.605 103.701C276.605 103.701 279.317 103.338 279.381 103.324C280.183 103.121 280.151 101.165 280.247 99.0936C280.268 98.7749 280.29 98.4561 280.311 98.1374L289.038 97.8477V97.9491C289.049 98.0456 289.059 98.1519 289.07 98.2678L289.086 98.4851C289.086 98.5624 289.091 98.6396 289.102 98.7169C289.262 100.542 289.599 103.121 290.241 103.411C290.61 103.585 293.096 103.556 294.893 104.845Z" fill="#F7C9A5"/>
<path d="M289.105 98.7169C288.383 100.021 286.779 102.281 284.405 102.208C282.143 102.136 280.844 100.282 280.25 99.0936C280.271 98.7749 280.293 98.4561 280.314 98.1374L289.041 97.8477V97.9491L289.073 98.2678L289.089 98.4851C289.089 98.5624 289.094 98.6396 289.105 98.7169Z" fill="#CB7D45"/>
<path d="M279.285 80.5792C279.285 80.5792 283.488 76.798 288.445 80.6516C288.445 80.6516 285.493 80.1011 279.285 80.5792Z" fill="#7053C0"/>
<path d="M277.713 94.487C277.713 94.487 276.382 92.0096 275.564 89.0977C274.97 87.0259 275.516 79.1737 284.258 79.7098C284.258 79.7098 286.793 79.7532 289.28 81.0426C291.253 82.0567 294.172 84.3458 291.702 91.3432L291.108 93.6902L277.713 94.487Z" fill="#B64C41"/>
<path d="M289.951 97.7887C287.69 99.7445 284.898 102.338 278.851 97.5424C277.663 96.6007 277.744 95.1519 277.68 93.0802C277.583 90.6174 276.942 89.1107 277.23 87.6909C277.599 85.9959 279.203 85.228 282.54 84.9672C288.652 84.4892 291.732 85.7351 291.331 88.4732C290.417 94.6014 292.245 95.8039 289.951 97.7887Z" fill="#F7C9A5"/>
<path d="M287.034 84.375L291.943 85.2587L291.141 90.141C291.141 90.141 291.205 89.4601 290.788 88.8371C290.371 88.2142 290.258 86.9972 289.424 85.8962C288.606 84.8096 284.98 84.8676 284.98 84.8676L287.034 84.375Z" fill="#B64C41"/>
<path d="M306.125 111.828C306.125 111.828 304.569 115.942 298.296 116.696C298.125 116.725 297.949 116.744 297.767 116.754H272.212C272.212 116.754 272.164 116.744 272.068 116.725C271.09 116.435 264.978 114.552 264.336 111.017C264.336 111.017 267.544 105.062 269.999 104.324C270.705 104.106 271.699 103.947 272.742 103.816C273.801 103.701 274.923 103.614 275.854 103.556C277.153 103.483 278.1 103.469 278.1 103.469C278.1 103.469 280.089 107.105 284.934 107.062C289.778 107.004 290.901 103.527 290.901 103.527C290.901 103.527 292.265 103.556 294.061 103.73C295.072 103.831 296.195 103.976 297.318 104.164C299.195 104.512 301.039 105.019 302.098 105.787C304.889 107.844 306.125 111.828 306.125 111.828Z" fill="#E0E5FF"/>
<path d="M305.143 174.688C304.646 192.276 304.39 224.25 301.422 233.449C301.181 234.203 300.475 234.753 299.625 234.869C297.251 235.159 292.278 235.869 290.177 234.927C287.417 233.696 287.786 197.129 287.738 191.436C287.706 189.089 286.15 178.527 285.701 171.559C285.685 171.4 285.428 171.4 285.412 171.559C285.123 177.426 284.225 187.408 284.225 190.798C284.225 192.305 284.177 196.362 284.049 201.447C284.049 201.447 284.043 201.447 284.033 201.447C283.872 207.821 283.551 215.818 283.038 222.396C282.509 229.248 281.739 234.579 280.68 234.927C278.466 235.652 273.333 235.13 271.039 234.84C270.317 234.753 269.723 234.29 269.515 233.667C269.082 232.421 268.713 230.726 268.392 228.669C266.403 216.007 266.146 189.944 265.713 174.688C265.248 158.346 269.804 146.191 270.878 143.584C271.071 142.004 271.167 140.382 271.215 139.107C271.215 139.02 269.788 128.343 270.044 125.271C270.253 122.939 271.44 119.636 272.017 118.144L272.13 115.174C272.258 114.507 273.124 113.276 273.894 113.276L272.739 103.815C273.798 103.7 274.921 103.613 275.851 103.555L276.509 113.276L276.525 113.421C279.236 113.551 283.343 113.739 285.123 113.739C285.99 113.739 287.417 113.696 288.957 113.623C290.497 113.566 292.15 113.479 293.481 113.421V113.276L294.059 103.729C295.069 103.83 296.192 103.975 297.315 104.163L296.096 113.276C296.818 113.276 297.748 113.725 298.31 115.174C298.31 115.174 300.684 124.634 300.331 126.372C299.994 128.111 299.048 138.397 299.048 138.426C299.352 140.251 299.77 142.323 300.042 143.7C301.181 146.539 305.609 158.578 305.143 174.688Z" fill="#7053C0"/>
<path d="M276.815 150.279C275.949 150.901 273.093 150.641 271.986 149.8C270.863 148.96 268.65 149.221 268.12 148.902C268.088 148.888 257.773 137.834 256.65 133.183C255.527 128.504 262.666 115.581 264.687 112.061C266.179 114.929 271.168 116.465 272.066 116.726C272.152 116.745 272.195 116.754 272.195 116.754H272.467C270.783 120.869 265.762 128.258 263.821 131.039C263.34 131.735 263.276 132.604 263.661 133.343C266.147 138.167 268.585 142.238 269.66 145.049C269.869 145.367 270.318 145.918 270.863 145.845C271.633 145.744 274.088 145.266 275.307 146.903C276.526 148.54 277.697 149.641 276.815 150.279Z" fill="#F7C9A5"/>
<path d="M294.539 88.648L273.155 88.8508C273.155 88.8508 272.835 83.0268 276.54 79.3035C276.711 79.1393 276.893 78.9751 277.086 78.811C277.872 78.13 278.85 77.5361 280.005 77.1014C284.272 75.4788 287.818 76.971 290.047 78.4922C290.261 78.6468 290.464 78.7965 290.657 78.9413C291.86 79.8685 292.534 80.6943 292.534 80.6943C292.534 80.6943 294.603 83.2441 294.539 88.648Z" fill="#8563CD"/>
<path d="M294.54 88.6479C294.54 88.6479 287.433 90.0821 283.134 90.1256C278.851 90.1836 273.156 88.8507 273.156 88.8507L279.252 88.7928C279.076 84.5334 277.183 79.9699 276.685 79.1731C276.862 78.9992 276.894 78.9703 277.086 78.8109C277.423 79.3324 280.327 84.0409 280.519 88.7783L287.353 88.7058C287.353 87.8511 287.53 81.2882 290.289 78.666C290.513 78.8254 290.465 78.7964 290.658 78.9413C288.059 81.2158 288.476 87.8945 288.524 88.7058L294.54 88.6479Z" fill="#C5C5C5"/>
<path d="M277.632 114.277C275.435 118.073 269.226 118.783 269.226 118.783C271.248 114.364 267.189 112.959 264.671 108.424C262.168 103.89 266.596 100.891 266.596 100.891C263.852 101.369 263.339 104.686 263.339 104.686C263.098 102.47 265.136 98.732 271.617 97.9932C276.365 97.4571 277.504 96.0084 277.777 95.2695C277.889 96.2257 278.146 96.9791 278.851 97.5441C279.354 97.9401 279.835 98.2878 280.295 98.5872C280.284 98.761 280.274 98.93 280.263 99.0942C280.231 99.6882 280.215 100.253 280.183 100.789C279.333 101.702 279.365 102.673 279.509 103.281C279.589 103.658 279.734 103.89 279.734 103.89C280.407 104.744 280.76 105.585 280.857 106.425C281.161 108.931 279.269 111.438 277.632 114.277Z" fill="#B64C41"/>
<path d="M286.391 145.396L286.327 146.338C286.215 147.975 284.579 149.177 282.782 148.931L279.028 148.424C277.344 148.192 276.173 146.773 276.429 145.251L276.526 144.643C274.729 144.353 272.836 143.991 270.879 143.527V143.513L271.216 139.109V139.08C271.922 139.311 274.119 139.978 277.376 140.427C277.969 139.398 279.237 138.775 280.568 138.949L283.969 139.384C284.964 139.514 285.798 140.079 286.247 140.833C290.081 140.644 294.444 139.963 299.048 138.428L299.995 143.44C298.342 144.005 293.578 145.367 286.391 145.396Z" fill="#6138A3"/>
<path d="M313.745 133.182C312.622 137.833 302.308 148.887 302.259 148.901C302.179 148.959 302.035 149.003 301.858 149.017C301.858 149.027 301.853 149.032 301.842 149.032C300.992 149.162 299.324 149.104 298.409 149.799C297.303 150.64 294.447 150.9 293.565 150.278C292.699 149.64 293.87 148.539 295.089 146.902C296.308 145.265 298.762 145.743 299.516 145.844C299.981 145.902 300.367 145.54 300.607 145.236C300.607 145.226 300.612 145.221 300.623 145.221C300.666 145.163 300.703 145.105 300.735 145.048C301.778 142.295 304.136 138.354 306.559 133.66C307.056 132.733 306.976 131.632 306.366 130.763C304.746 128.416 301.457 123.548 299.34 119.651C299.083 118.521 298.843 117.463 298.65 116.652C303.302 115.971 305.227 113.421 305.853 112.32C308.067 116.188 314.852 128.604 313.745 133.182Z" fill="#F7C9A5"/>
<path d="M383.623 153.22C382.051 153.553 374.993 153.626 370.052 152.626C369.009 152.409 368.063 152.162 367.293 151.844C366.362 151.481 365.656 151.032 365.287 150.482C364.726 149.641 363.715 146.758 362.496 142.977C359.192 132.561 354.523 115.35 354.523 115.35C354.523 115.35 363.892 117.074 365.881 118.551C367.854 120.029 369.619 143.426 371.48 144.049C371.752 144.151 372.234 144.339 372.827 144.614C372.859 144.624 372.891 144.638 372.923 144.658C373.292 144.817 373.693 145.005 374.142 145.208C378.009 147.005 384.409 150.235 385.067 150.96C385.949 151.916 385.885 152.756 383.623 153.22Z" fill="#E9E9FF"/>
<path d="M356.719 164.607C355.863 164.684 354.954 164.728 353.992 164.737C351.04 164.737 348.329 164.462 345.939 164.013C344.607 163.767 343.372 163.463 342.249 163.144C337.581 161.811 334.806 160.043 334.822 159.536C334.838 159.29 335.127 155.234 335.448 150.786C335.833 145.411 336.266 139.457 336.314 139.022C336.394 138.124 335.881 136.11 335.175 133.647C333.507 127.852 330.828 119.667 332.72 118.377C334.726 117.001 339.394 115.871 341.736 115.625C342.281 115.567 343.918 115.364 343.934 115.364C343.934 116.885 347.527 118.392 350.447 118.218C352.917 118.073 354.505 116.393 354.505 115.466L354.521 115.35C354.698 115.35 364.291 121.478 365.494 127.476C365.579 127.872 365.622 128.268 365.622 128.664C365.67 157.16 363.376 164.013 356.719 164.607Z" fill="#E9E9FF"/>
<path d="M343.93 115.307C343.866 112.974 343.914 110.193 344.267 107.846L354.55 109.367C354.55 109.367 354.55 112.206 354.518 115.35C354.518 115.35 354.791 118.262 350.812 118.697C346.834 119.117 343.818 117.552 343.93 115.307Z" fill="#F7C9A5"/>
<path d="M352.529 238.276C351.23 237.552 352 232.22 352 232.22C352 232.22 358.048 227.889 358.866 231.221C359.684 234.567 364.593 236.089 367.384 236.509C369.309 236.798 370.015 237.697 370.191 238.262L352.529 238.276Z" fill="#6138A3"/>
<path d="M343.113 146.686C343.113 155.596 338.333 153.191 335.445 150.786C335.83 145.411 336.103 126.346 336.103 126.346C336.103 126.346 343.113 133.937 343.113 146.686Z" fill="#9327D5"/>
<path d="M374.139 145.208C373.946 146.454 371.748 150.091 370.048 152.626C369.005 152.409 368.059 152.162 367.289 151.844C366.358 151.481 365.652 151.032 365.283 150.482C364.722 149.642 363.711 146.759 362.492 142.977C363.391 138.327 364.241 133.734 364.241 133.734L364.497 130.648C364.497 130.88 368.492 144.426 370.305 144.745C371.395 144.933 372.165 144.701 372.823 144.614C372.855 144.624 372.887 144.639 372.919 144.658C373.288 144.817 373.689 145.006 374.139 145.208Z" fill="#9327D5"/>
<path d="M333.972 238.276C332.689 237.552 333.443 232.22 333.443 232.22C333.443 232.22 339.506 227.889 340.309 231.221C341.127 234.567 346.035 236.089 348.827 236.509C350.752 236.798 351.442 237.697 351.634 238.262L333.972 238.276Z" fill="#6138A3"/>
<path d="M342.955 105.165C342.955 105.165 336.089 95.4004 349.275 94.7484C349.275 94.7484 354.216 95.27 355.339 94.2559C355.339 94.2559 359.173 99.5293 355.58 105.165C352.002 110.815 342.955 105.165 342.955 105.165Z" fill="#6138A3"/>
<path d="M354.248 110.265C353.237 110.975 350.318 111.685 349.468 111.772C349.468 111.772 345.12 110.888 344.334 110.468C343.115 109.787 343.195 108.439 343.131 106.556C343.051 104.325 342.794 102.572 343.083 101.283C343.404 99.7469 344.479 98.8777 347.511 98.6314C353.061 98.1968 355.371 99.4572 355.467 101.138C355.489 101.592 355.51 102.021 355.531 102.427C355.756 107.672 355.291 109.526 354.248 110.265Z" fill="#F7C9A5"/>
<path d="M354.249 110.265C353.239 110.975 349.469 111.772 349.533 112.713C349.533 112.713 345.105 110.917 344.335 110.468C342.956 109.642 343.309 108.425 343.132 106.556C342.956 104.76 342.956 104.108 343.132 105.31C343.405 107.179 343.325 108.208 344.544 108.874C344.897 109.077 345.747 109.541 346.822 109.787C347.014 109.835 347.207 109.874 347.399 109.903C348.057 109.874 347.111 109.048 347.223 108.57C347.464 107.599 350.415 107.744 350.977 108.193C351.506 108.613 350.784 109.207 350.784 109.685C350.784 109.845 351.073 109.859 351.394 109.83C352.324 109.685 353.207 109.468 353.961 109.207C354.618 108.976 355.533 107.179 355.581 104.137C355.645 108.092 355.164 109.613 354.249 110.265Z" fill="#6138A3"/>
<path d="M334.822 157.466C334.844 157.244 334.86 157.026 334.871 156.814C334.892 156.611 334.913 156.408 334.935 156.205C334.935 156.118 334.94 156.036 334.951 155.959C334.962 155.804 334.972 155.645 334.983 155.481C335.026 154.959 335.068 154.447 335.111 153.945C335.122 153.81 335.127 153.68 335.127 153.554C335.159 153.168 335.186 152.781 335.207 152.395C335.218 152.192 335.234 151.989 335.256 151.787C335.266 151.535 335.277 151.284 335.288 151.033C335.298 150.879 335.309 150.729 335.32 150.584C335.32 150.497 335.325 150.41 335.336 150.323C335.336 150.169 335.341 150.019 335.352 149.874C335.384 149.131 335.416 148.401 335.448 147.687C335.448 147.677 335.448 147.672 335.448 147.672C335.593 147.382 335.673 147.209 335.689 147.194C335.689 147.184 335.694 147.18 335.705 147.18C338.849 146.296 340.373 142.601 341.079 138.632C341.608 135.749 341.688 132.707 341.656 130.533C341.64 128.853 343.148 127.477 345.009 127.477H364.307C365.029 127.477 365.623 128.013 365.623 128.665C365.671 157.161 366.505 163.391 366.505 164.333C366.494 164.622 366.489 164.932 366.489 165.26C366.473 166.303 366.425 167.505 366.312 168.824C366.216 170.331 366.04 171.997 365.783 173.793C365.73 174.17 365.676 174.556 365.623 174.952C363.473 190.135 360.602 214.822 361.596 232.54C361.644 233.322 360.954 233.974 360.104 234.09C358.067 234.351 354.024 235.51 351.811 234.365C350.688 233.771 347.576 220.11 346.806 209.432C346.629 206.984 346.581 204.695 346.709 202.754C346.741 202.261 346.784 201.797 346.838 201.363C346.934 200.638 348.089 197.538 348.073 196.307V196.278C348.009 193.568 347.528 189.802 346.886 185.673C346.629 184.108 346.373 182.5 346.1 180.877C346.1 180.868 346.1 180.863 346.1 180.863C345.025 174.59 343.854 168.07 343.421 163.463C343.421 163.463 343.415 163.463 343.405 163.463C343.009 163.357 342.624 163.251 342.25 163.145C337.582 161.812 334.806 160.044 334.822 159.537C334.855 158.972 334.742 158.262 334.822 157.466Z" fill="#7053C0"/>
<path d="M354.295 174.936C359.525 162.477 365.3 162.81 366.31 168.822C366.214 170.329 366.038 171.995 365.781 173.792C365.727 174.168 365.674 174.555 365.62 174.951C363.471 190.134 360.599 214.82 361.594 232.538C361.642 233.321 360.952 233.973 360.102 234.089C358.065 234.349 354.022 235.508 351.809 234.364C350.686 233.77 347.574 220.108 346.804 209.431C346.627 206.982 354.937 179.065 354.295 174.936Z" fill="#6138A3"/>
<path d="M335.497 157.654C337.694 151.526 357.939 162.739 357.939 162.739C357.939 162.739 357.634 168.172 355.453 175.56C351.121 190.222 344.384 215.155 342.748 233.308C342.683 234.075 341.913 234.64 341.063 234.655C338.994 234.684 334.823 235.35 332.786 233.945C331.47 233.032 330.01 210.243 332.657 200.638C332.85 199.943 334.454 197.002 334.614 195.77C335.834 186.296 333.556 163.072 335.497 157.654Z" fill="#7053C0"/>
<path d="M358.05 99.8919L340.372 99.718C340.324 95.2704 342.04 93.1552 342.04 93.1552C342.04 93.1552 342.586 92.4743 343.58 91.7064C343.741 91.5809 343.912 91.4601 344.094 91.3442C345.923 90.0838 348.858 88.8524 352.387 90.1852C353.35 90.5474 354.136 91.04 354.794 91.605C354.954 91.7402 355.104 91.8754 355.243 92.0107C358.307 95.082 358.05 99.8919 358.05 99.8919Z" fill="#8563CD"/>
<path d="M343.586 91.7056C343.746 91.5897 343.714 91.6042 343.891 91.4883C346.281 93.7338 346.329 99.5288 346.313 99.7751H345.334C345.351 99.7027 345.864 93.6904 343.586 91.7056Z" fill="#C5C5C5"/>
<path d="M358.053 99.8904C358.053 99.8904 353.353 100.991 349.808 100.948C346.262 100.919 340.375 99.7165 340.375 99.7165L351.973 99.8324C352.214 95.8918 354.524 92.0381 354.797 91.6035C354.957 91.7339 354.989 91.7629 355.133 91.9078C354.716 92.5742 353.224 96.2975 353.016 99.8469L358.053 99.8904Z" fill="#C5C5C5"/>
<path d="M341.044 115.713C341.044 115.713 347.011 121.986 347.364 127.477L344.316 127.622C344.316 127.622 343.546 121.508 339.055 116.09C339.055 116.09 339.761 115.93 340.001 115.887C340.306 115.829 341.044 115.713 341.044 115.713Z" fill="#7053C0"/>
<path d="M358.833 116.248C360.486 118.494 363.485 123.231 363.726 127.548L360.662 127.592C360.662 127.592 360.197 121.463 355.93 115.625C356.7 115.77 358.833 116.248 358.833 116.248Z" fill="#7053C0"/>
<path d="M351.361 177.806V192.033C351.361 193.076 350.415 193.931 349.26 193.931H328.261C327.106 193.931 326.16 193.076 326.16 192.033V177.806C326.16 176.763 327.106 175.908 328.261 175.908H342.073C340.244 175.329 335.64 173.981 333.571 174.025C331.405 174.068 326.577 175.995 326.577 175.995C326.577 175.995 323.352 175.966 324.09 175.894C324.379 175.865 329.256 172.967 333.539 172.996C339.474 173.025 345.65 175.43 346.789 175.908H349.26C350.415 175.908 351.361 176.763 351.361 177.806Z" fill="#8563CD"/>
<path d="M344.542 177.806V192.033C344.542 193.076 343.595 193.931 342.44 193.931H321.426C320.271 193.931 319.324 193.076 319.324 192.033V177.806C319.324 176.763 320.271 175.908 321.426 175.908H342.44C343.595 175.908 344.542 176.763 344.542 177.806Z" fill="#C5C5C5"/>
<path d="M336.264 149.424C336.409 155.856 335.526 168.663 335.526 168.663H331.324C329.334 159.652 328.645 153.857 328.645 150.698C328.645 150.071 328.645 149.491 328.645 148.96C328.677 146.251 328.757 144.686 328.757 144.686C327.971 128.33 331.58 119.579 332.719 118.377C333.858 117.16 339.056 116.088 339.056 116.088C339.056 116.088 340.772 120.608 341.478 124.244C342.184 127.881 335.976 143.151 336.232 148.38C336.243 148.709 336.254 149.057 336.264 149.424Z" fill="#E9E9FF"/>
<path d="M391.417 154.365V237.929C391.417 238.233 391.129 238.479 390.792 238.479H387.407C387.07 238.479 386.781 238.233 386.781 237.929V154.365C386.781 154.061 387.07 153.814 387.407 153.814H390.792C391.129 153.814 391.417 154.061 391.417 154.365Z" fill="#C8A580"/>
<path d="M391.417 154.365V156.958H386.781V154.365C386.781 154.061 387.07 153.814 387.407 153.814H390.792C391.129 153.814 391.417 154.061 391.417 154.365Z" fill="#7053C0"/>
<path d="M386.781 235.697H391.417V237.928C391.417 238.233 391.129 238.479 390.792 238.479H387.407C387.07 238.479 386.781 238.233 386.781 237.928V235.697Z" fill="#7053C0"/>
<path d="M389.479 159.594V233.147C389.479 233.321 389.319 233.466 389.126 233.466C388.934 233.466 388.773 233.321 388.773 233.147V159.594C388.773 159.42 388.934 159.275 389.126 159.275C389.319 159.275 389.479 159.42 389.479 159.594Z" fill="#C5C5C5"/>
<path d="M338.51 173.415C338.558 174.473 333.537 176.834 332.029 176.211C330.505 175.574 330.457 171.995 331.324 168.663C329.334 159.652 328.645 153.857 328.645 150.699C328.645 150.071 328.645 149.492 328.645 148.96C330.201 148.671 332.912 148.453 336.264 149.424C336.409 155.856 335.526 168.663 335.526 168.663C335.526 168.663 338.446 172.358 338.51 173.415Z" fill="#F7C9A5"/>
<path d="M392.86 156.074C392.523 156.074 391.673 155.683 391.031 154.959C390.357 154.205 389.346 153.93 388.416 154.205C387.822 154.394 387.197 154.524 386.684 154.481C385.352 154.379 383.62 153.22 383.62 153.22C381.727 153.626 371.813 153.655 367.289 151.844C368.444 147.787 370.914 145.701 372.92 144.658C375.855 145.962 381.775 148.889 384.133 150.308C384.566 150.453 385.641 150.772 386.651 150.613C387.983 150.395 389.764 150.134 391.271 151.091C392.298 151.757 392.603 152.51 393.02 153.858C393.277 154.713 393.405 156.074 392.86 156.074Z" fill="#F7C9A5"/>
<path d="M38.4203 172.214V186.441C38.4203 187.484 37.4739 188.339 36.3189 188.339H15.3202C14.1652 188.339 13.2188 187.484 13.2188 186.441V172.214C13.2188 171.171 14.1652 170.316 15.3202 170.316H36.3189C37.4739 170.316 38.4203 171.171 38.4203 172.214Z" fill="#8563CD"/>
<path d="M45.2567 172.214V186.441C45.2567 187.484 44.3102 188.339 43.1552 188.339H22.1405C20.9855 188.339 20.0391 187.484 20.0391 186.441V172.214C20.0391 171.171 20.9855 170.316 22.1405 170.316H43.1552C44.3102 170.316 45.2567 171.171 45.2567 172.214Z" fill="#C5C5C5"/>
<path d="M17.5977 170.403C17.5977 170.403 22.5866 167.085 23.3246 167.157C24.0625 167.23 25.2496 167.476 25.2496 167.476L20.79 170.519L17.5977 170.403Z" fill="#8563CD"/>
<path fill-rule="evenodd" clip-rule="evenodd" d="M62.2883 148.687C62.2883 148.687 59.3687 149.136 54.3155 148.745C54.4278 151.396 54.5883 154.033 54.877 157.046C54.9572 157.843 54.8449 158.553 54.877 159.118C54.893 159.625 52.1178 161.392 47.4497 162.725C46.3268 163.044 45.0915 163.348 43.7601 163.594C41.3699 164.029 38.6588 164.319 35.7071 164.319C34.7446 164.309 33.8356 164.266 32.98 164.188C26.3227 163.594 22.7294 161.103 22.7294 161.103C22.1198 161.117 24.0287 156.742 24.0769 128.245C24.0769 127.849 24.1143 127.453 24.1892 127.057C25.4083 121.059 35.0013 115.047 35.1778 115.047C35.1778 115.96 36.7819 117.655 39.2524 117.799C42.172 117.973 45.7493 116.669 45.7493 115.148C45.7653 115.148 47.4176 115.148 47.963 115.206C50.3051 115.438 54.9733 116.583 56.9785 117.959C59.6735 119.799 66.4271 140.632 62.2883 148.687ZM53.4012 133.663C53.5455 134.692 53.6578 135.778 53.7541 136.908C53.8664 138.256 53.9466 139.676 54.0108 141.168C54.0108 141.284 54.0161 141.395 54.0268 141.501C54.2942 141.453 54.5508 141.404 54.7968 141.356C55.1497 141.289 55.4812 141.221 55.7914 141.153C56.3689 141.008 55.1497 137.807 53.4012 133.663Z" fill="#E0E5FF"/>
<path d="M30.1906 138.633C28.2495 147.673 26.1802 157.003 24.8968 161.972C25.0091 164.304 25.1535 169.418 24.3033 169.752C23.1964 170.172 21.6243 168.694 20.1645 167.636C18.7047 166.579 18.8812 166.057 19.6993 164.217C20.1645 163.16 20.1966 162.102 20.1324 161.378C19.571 158.364 18.8812 150.237 19.4426 144.37C19.6191 142.703 19.7955 141.327 20.0041 140.472C21.0789 136.155 21.3997 120.871 24.592 118.466C27.7843 116.061 35.1796 115.047 35.1796 115.047C35.1796 115.047 32.8054 126.593 30.1906 138.633Z" fill="#F7C9A5"/>
<path d="M35.1823 115.047C35.1823 115.047 33.8187 121.697 32.006 130.172C31.4445 132.866 30.8349 135.735 30.1933 138.633C27.6426 143.153 25.461 146.224 24.7872 145.644C23.4076 144.471 20.9853 144.326 19.4453 144.37C19.6218 142.703 19.7982 141.327 20.0068 140.472C20.103 140.139 20.1672 139.734 20.2474 139.255C21.1457 133.823 21.643 120.683 24.5947 118.466C26.1347 117.307 28.6693 116.467 30.867 115.916C32.006 115.626 33.0327 115.424 33.8187 115.279C34.6529 115.119 35.1823 115.047 35.1823 115.047Z" fill="#E0E5FF"/>
<path d="M24.7872 145.643C23.4076 144.47 20.9853 144.325 19.4453 144.368C19.6218 142.702 19.7982 141.326 20.0068 140.471C20.103 140.138 20.1672 139.732 20.2474 139.254L27.8993 122.594C27.8993 122.594 25.461 146.223 24.7872 145.643Z" fill="white"/>
<path d="M38.8862 118.262C34.9078 117.842 35.1805 114.93 35.1805 114.93C35.1912 114.93 35.1966 114.93 35.1966 114.93C35.1484 111.787 35.1484 108.947 35.1484 108.947L45.4312 107.426C45.7841 109.773 45.8322 112.554 45.7681 114.887C45.8804 117.132 42.8645 118.697 38.8862 118.262Z" fill="#F7C9A5"/>
<path d="M19.6172 238.291C19.7936 237.712 20.3872 236.755 22.3122 236.466C25.1035 236.046 30.0122 234.524 30.8304 231.178C31.6485 227.846 37.6962 232.177 37.6962 232.177C37.6962 232.177 38.4502 237.552 37.1668 238.262L19.6172 238.291Z" fill="#6138A3"/>
<path d="M54.7982 141.369C54.7982 141.369 52.8732 143.716 52.4722 143.716C52.0872 143.716 47.2265 142.021 48.6222 138.211C50.0178 134.415 53.4026 133.662 53.4026 133.662C53.547 134.691 53.6593 135.777 53.7555 136.907C53.8678 138.255 53.948 139.674 54.0122 141.167C54.0122 141.283 54.0175 141.394 54.0282 141.5C54.2956 141.452 54.5522 141.403 54.7982 141.355V141.369Z" fill="white"/>
<path d="M38.1797 238.291C38.3561 237.712 38.9497 236.755 40.8747 236.466C43.666 236.046 48.5747 234.524 49.3929 231.178C50.1949 227.846 56.2587 232.177 56.2587 232.177C56.2587 232.177 57.0127 237.552 55.7293 238.262L38.1797 238.291Z" fill="#6138A3"/>
<path d="M34.1229 104.745C30.5295 99.1094 34.3635 93.8359 34.3635 93.8359C35.4864 94.8501 40.4273 94.3285 40.4273 94.3285C53.6136 94.9804 46.7477 104.745 46.7477 104.745C46.7477 104.745 37.7002 110.395 34.1229 104.745Z" fill="#B64C41"/>
<path d="M34.1686 102.007C34.19 101.602 34.2114 101.172 34.2328 100.718C34.329 99.0373 36.639 97.7769 42.1895 98.2115C45.2214 98.4578 46.2962 99.327 46.617 100.863C46.9058 102.152 46.6491 103.905 46.5689 106.136C46.5047 108.02 46.5849 109.367 45.3657 110.048C44.5797 110.468 40.2324 111.352 40.2324 111.352C39.3822 111.265 36.4626 110.555 35.452 109.845C34.4092 109.106 33.944 107.252 34.1686 102.007Z" fill="#F7C9A5"/>
<path d="M34.123 103.717C34.1712 106.759 35.0855 108.556 35.7433 108.787C36.4972 109.048 37.3795 109.266 38.3099 109.41C38.6308 109.439 38.9195 109.425 38.9195 109.266C38.9035 108.787 38.1976 108.193 38.727 107.773C39.2885 107.324 42.2402 107.179 42.4808 108.15C42.5931 108.628 41.6466 109.454 42.3043 109.483C42.4968 109.454 42.6893 109.415 42.8818 109.367C43.9566 109.121 44.8068 108.657 45.1598 108.454C46.3789 107.788 46.2987 106.759 46.5714 104.89C46.7479 103.688 46.7479 104.34 46.5714 106.136C46.395 108.005 46.7479 109.222 45.3683 110.048C44.5983 110.497 40.1708 112.293 40.1708 112.293C40.2349 111.352 36.4651 110.555 35.4545 109.845C34.5241 109.193 34.0589 107.672 34.123 103.717Z" fill="#B64C41"/>
<path d="M54.8777 159.117C54.8938 159.625 52.1186 161.392 47.4504 162.725C47.0761 162.831 46.6911 162.937 46.2954 163.044C46.2847 163.044 46.2794 163.044 46.2794 163.044C45.8463 167.651 44.6752 174.17 43.6004 180.443C43.3277 182.08 43.071 183.688 42.8144 185.253C42.1727 189.382 41.6914 193.149 41.6273 195.858V195.887C41.6112 197.118 42.7662 200.218 42.8625 200.943C42.916 201.377 42.9587 201.841 42.9908 202.334C43.1192 204.26 43.071 206.564 42.8946 209.012C42.1246 219.69 39.0125 233.351 37.8895 233.931C35.6758 235.09 31.6333 233.931 29.596 233.67C28.7458 233.554 28.056 232.902 28.1041 232.12C29.0987 214.402 26.2272 189.715 24.0776 174.532C24.0241 174.136 23.9707 173.75 23.9172 173.373C23.6605 171.577 23.4841 169.911 23.3718 168.404C23.2755 167.086 23.2274 165.883 23.2114 164.84C23.2114 164.512 23.206 164.203 23.1953 163.913C23.1953 162.957 24.0295 156.741 24.0776 128.245C24.0776 127.593 24.6712 127.057 25.393 127.057H44.6912C46.5521 127.057 48.06 128.433 48.044 130.113C48.0119 132.287 48.0921 135.315 48.6215 138.212C49.3273 142.182 50.8513 145.876 53.9954 146.76C54.0061 146.76 54.0115 146.76 54.0115 146.76C54.0275 146.789 54.1077 146.962 54.2521 147.252C54.2521 147.252 54.2521 147.257 54.2521 147.267C54.2842 147.981 54.3163 148.706 54.3484 149.44C54.3591 149.594 54.3644 149.744 54.3644 149.889C54.3751 149.985 54.3805 150.077 54.3805 150.164C54.3911 150.309 54.4018 150.459 54.4125 150.613C54.4232 150.864 54.4339 151.116 54.4446 151.367C54.466 151.569 54.4821 151.772 54.4927 151.975C54.5141 152.361 54.5355 152.748 54.5569 153.134C54.5676 153.26 54.5783 153.39 54.589 153.525C54.6318 154.028 54.6745 154.539 54.7173 155.061C54.728 155.225 54.7387 155.384 54.7494 155.539C54.7601 155.616 54.7655 155.694 54.7655 155.771C54.7868 155.983 54.8082 156.191 54.8296 156.394C54.8403 156.606 54.8564 156.824 54.8777 157.046C54.958 157.843 54.8457 158.552 54.8777 159.117Z" fill="#7053C0"/>
<path d="M42.8978 209.012C42.1278 219.689 39.0157 233.351 37.8928 233.93C35.679 235.089 31.6365 233.93 29.5992 233.67C28.749 233.554 28.0592 232.902 28.1073 232.12C29.1019 214.401 26.2304 189.715 24.0808 174.532C24.0274 174.136 23.9739 173.749 23.9204 173.373C23.6638 171.576 23.4873 169.91 23.375 168.404C24.4017 162.391 30.1767 162.058 35.4063 174.503C37.6521 179.327 43.0743 206.564 42.8978 209.012Z" fill="#6138A3"/>
<path d="M55.0903 195.351C55.2507 196.582 56.8549 199.523 57.0474 200.218C59.6943 209.824 58.2184 232.612 56.9191 233.525C54.8818 234.93 50.7109 234.264 48.6415 234.235C47.7913 234.22 47.0213 233.655 46.9571 232.888C45.3209 214.735 38.5834 189.802 34.2521 175.141C32.0704 167.752 31.7656 162.319 31.7656 162.319C31.7656 162.319 52.0103 151.106 54.208 157.234C56.1491 162.652 53.8711 185.876 55.0903 195.351Z" fill="#7053C0"/>
<path d="M49.3317 99.2981L31.6537 99.4719C31.6537 99.4719 31.3971 94.6621 34.461 91.5908C34.6001 91.4555 34.7498 91.3203 34.9102 91.1851C35.5679 90.6201 36.354 90.1275 37.3165 89.7653C40.8456 88.4325 43.7813 89.6639 45.61 90.9243C45.7918 91.0402 45.963 91.161 46.1234 91.2865C47.118 92.0543 47.6634 92.7353 47.6634 92.7353C47.6634 92.7353 49.3798 94.8504 49.3317 99.2981Z" fill="#8563CD"/>
<path d="M43.4001 99.3552C43.3841 99.1089 43.4322 93.3139 45.8224 91.0684C45.9989 91.1843 45.9668 91.1698 46.1272 91.2857C43.8493 93.2705 44.3626 99.2828 44.3787 99.3552H43.4001Z" fill="#C5C5C5"/>
<path d="M49.3342 99.2966C49.3342 99.2966 43.4469 100.499 39.9017 100.528C36.3565 100.571 31.6562 99.4704 31.6562 99.4704L36.7094 99.427C36.549 95.9065 34.9929 92.1398 34.5758 91.4878C34.7202 91.343 34.7523 91.314 34.9127 91.1836C35.1854 91.6182 37.5757 95.5009 37.7521 99.4125L49.3342 99.2966Z" fill="#C5C5C5"/>
<path d="M50.6456 115.67C46.1378 121.088 45.3678 127.057 45.3678 127.057H42.3359C42.6889 121.566 48.6564 115.293 48.6564 115.293L50.6456 115.67Z" fill="#7053C0"/>
<path d="M33.8162 115.277C29.5331 121.116 29.0358 127.056 29.0358 127.056H26.0039C26.2445 122.738 29.2123 118.16 30.8646 115.915C32.0035 115.625 33.0302 115.422 33.8162 115.277Z" fill="#7053C0"/>
<path fill-rule="evenodd" clip-rule="evenodd" d="M63.2541 158.146C62.6606 159.189 61.9066 160.087 61.0564 160.797C59.6928 161.942 58.0245 162.681 56.1476 162.956C55.5487 163.043 54.9284 163.086 54.2868 163.086C54.0729 163.125 53.8537 163.154 53.6291 163.173C53.5221 163.183 53.4098 163.193 53.2922 163.202C53.1532 163.212 53.0195 163.221 52.8912 163.231C52.0249 163.463 51.1105 163.593 50.1641 163.593C49.9395 163.593 49.7202 163.584 49.5063 163.564C49.2924 163.584 49.0786 163.593 48.8647 163.593C47.854 163.593 46.7953 163.448 45.7205 163.173C45.7098 163.173 45.7044 163.173 45.7044 163.173C45.4264 163.106 45.143 163.028 44.8542 162.941C44.3516 162.777 43.8436 162.589 43.3303 162.376C38.1007 160.145 32.9192 154.712 33.1438 148.642C33.4325 140.964 38.2611 124.55 43.4265 117.175C43.4265 117.166 43.4319 117.161 43.4426 117.161C43.988 116.379 44.5174 115.712 45.0628 115.162C45.1376 115.094 45.2072 115.026 45.2713 114.959C46.2499 114.017 47.1963 113.51 48.0947 113.423C48.3834 113.327 48.6775 113.278 48.977 113.278C49.1053 113.278 49.2497 113.298 49.4101 113.336C49.5491 113.307 49.6828 113.288 49.8111 113.278C50.6934 113.249 52.0249 113.872 53.9178 116.567C53.9285 116.567 53.9339 116.572 53.9339 116.581C53.7734 116.523 53.613 116.47 53.4526 116.422C53.3029 116.374 53.1532 116.325 53.0034 116.277C52.8644 116.239 52.7254 116.2 52.5864 116.161C52.458 116.123 52.335 116.089 52.2174 116.06C52.0142 116.002 51.8057 115.949 51.5918 115.901C51.5597 115.881 51.5222 115.872 51.4795 115.872C51.4688 115.862 51.4581 115.857 51.4474 115.857C51.2763 115.818 51.1052 115.78 50.9341 115.741C50.5811 115.654 50.2389 115.577 49.9074 115.509C49.8967 115.509 49.8913 115.509 49.8913 115.509C49.6026 115.176 49.362 114.959 49.1534 114.814C49.0679 114.756 48.993 114.708 48.9288 114.669C48.6829 114.804 48.4315 114.993 48.1749 115.234C48.0572 115.34 47.9396 115.461 47.822 115.596C47.7471 115.664 47.6776 115.736 47.6134 115.814C47.6134 115.814 47.6134 115.818 47.6134 115.828C47.5599 115.886 47.5065 115.949 47.453 116.016C44.2446 120.073 41.5978 130.258 40.3786 139.037C39.769 143.499 39.5284 147.599 39.753 150.352C40.0738 154.22 43.4265 158.928 49.2657 161.029C49.747 161.203 50.2389 161.357 50.7416 161.493C50.795 161.502 50.8485 161.512 50.902 161.522C50.9127 161.531 50.918 161.536 50.918 161.536C50.9822 161.546 51.041 161.56 51.0945 161.58C51.5116 161.676 51.9233 161.753 52.3297 161.811C53.6451 161.275 54.8001 160.377 55.7145 159.16C57.1903 157.219 57.9603 153.669 58.0245 148.903C58.3774 148.903 58.7143 148.903 59.0351 148.903C58.971 154.582 57.9122 157.697 56.8053 159.435C56.8695 159.339 56.939 159.247 57.0139 159.16C58.4737 157.219 59.2597 153.669 59.3078 148.889C59.6822 148.879 60.019 148.869 60.3185 148.86C60.2704 155.089 59.0031 158.262 57.7839 159.87C57.3989 160.382 56.9764 160.841 56.5166 161.246C57.9603 160.565 59.1795 159.479 60.0618 158.03C61.2489 156.132 61.7301 152.945 61.5376 148.773C62.0349 148.729 62.2916 148.686 62.2916 148.686C62.3665 148.531 62.4413 148.377 62.5162 148.222C62.8691 153.916 61.9226 157.002 60.896 158.653C60.3666 159.508 59.741 160.247 59.0512 160.87C60.4308 160.131 61.5697 159.015 62.4039 157.567C63.7354 155.22 64.0241 151.091 63.2702 145.687C63.4947 144.47 63.607 143.123 63.607 141.703C64.2166 144.658 64.5214 147.136 64.6337 149.222C64.8904 153.916 64.1204 156.61 63.2541 158.146ZM36.9777 156.292C35.3415 154.032 34.3309 151.395 34.4431 148.642C34.6838 142.021 38.2932 128.954 42.5924 120.725C42.7528 120.358 42.9132 120 43.0736 119.653C38.5178 127.447 34.395 141.891 34.1544 148.686C34.0581 151.004 35.0207 153.8 36.9777 156.292ZM45.4317 161.522C40.9401 159.305 36.9296 155.075 36.6729 149.975C36.4804 145.948 37.2986 139.385 38.7905 132.923C36.8815 138.907 35.5821 144.948 35.4377 148.686C35.2773 152.887 38.5017 158.581 44.9826 161.333C45.1323 161.401 45.282 161.464 45.4317 161.522ZM45.5761 160.406C42.0148 158.175 39.1113 154.655 38.7584 150.453C38.5498 148.106 38.6782 144.89 39.0632 141.326C39.8332 134.43 41.5657 126.216 43.8917 120.479C43.7634 120.72 43.6297 120.971 43.4907 121.232C43.1217 122.087 42.7849 122.985 42.448 123.927C39.4321 132.344 37.3788 144.079 37.6836 149.917C37.86 153.51 40.6032 157.929 45.5761 160.406Z" fill="#8563CD"/>
<path d="M56.7094 148.874C54.8326 148.889 52.715 148.642 52.3461 148.613C48.2554 148.237 42.9296 147.425 36.7535 145.788C36.5931 145.803 36.4648 145.803 36.3364 145.788C35.4862 145.716 32.1495 145.006 31.3475 144.716C30.5454 144.441 30.6577 143.152 30.9464 142.442C31.2352 141.732 34.0425 140.805 35.021 140.805C35.9835 140.805 38.4539 142.876 38.5181 142.934C39.24 142.905 46.1861 142.601 51.3675 141.92C51.528 141.906 54.6401 141.384 54.8005 141.37C55.4421 142.674 56.6453 145.658 56.7094 148.874Z" fill="#F7C9A5"/>
<path fill-rule="evenodd" clip-rule="evenodd" d="M164.699 74.8565V78.7971H167.683V80.0285H164.699V83.9691H167.683V85.186H164.699V89.1266H167.683V90.3581H164.699V94.2987H167.683V95.5156H164.699V99.4562H167.683V100.688H164.699V103.875H167.683V105.106H164.699V109.032H167.683V110.264H164.699V114.204H167.683V115.436H164.699V119.377H167.683V120.593H164.699V124.534H167.683V125.765H164.699V129.706H167.683V130.923H164.699V134.69H167.683V135.907H164.699V139.847H167.683V141.079H164.699V145.019H167.683V146.236H164.699V150.177H167.683V151.408H164.699V155.349H167.683V156.58H164.699V160.506H167.683V161.738H164.699V164.925H167.683V166.157H164.699V170.097H167.683V171.314H164.699V175.255H167.683V176.486H164.699V180.427H167.683V181.644H164.699V185.584H167.683V186.816H164.699V190.756H167.683V191.973H164.699V195.494H167.683V196.725H164.699V200.666H167.683V201.883H164.699V205.823H167.683V207.055H164.699V210.995H167.683V212.212H164.699V216.153H167.683V217.384H164.699V221.325H167.683V222.542H164.699V225.729H167.683V226.961H164.699V230.901H167.683V232.133H164.699V236.059H167.683V237.29H132.375V236.059H135.648V232.133H132.375V230.901H135.648V226.961H132.375V225.729H135.648V222.542H132.375V221.325H135.648V217.384H132.375V216.153H135.648V212.212H132.375V210.995H135.648V207.055H132.375V205.823H135.648V201.883H132.375V200.666H135.648V196.725H132.375V195.494H135.648V191.973H132.375V190.756H135.648V186.816H132.375V185.584H135.648V181.644H132.375V180.427H135.648V176.486H132.375V175.255H135.648V171.314H132.375V170.097H135.648V166.157H132.375V164.925H135.648V161.738H132.375V160.506H135.648V156.58H132.375V155.349H135.648V151.408H132.375V150.177H135.648V146.236H132.375V145.019H135.648V141.079H132.375V139.847H135.648V135.907H132.375V134.69H135.648V130.923H132.375V129.706H135.648V125.765H132.375V124.534H135.648V120.593H132.375V119.377H135.648V115.436H132.375V114.204H135.648V110.264H132.375V109.032H135.648V105.106H132.375V103.875H135.648V100.688H132.375V99.4562H135.648V95.5156H132.375V94.2987H135.648V90.3581H132.375V89.1266H135.648V85.186H132.375V83.9691H135.648V80.0285H132.375V78.7971H135.648V74.8565H132.375V73.6395H135.648V65.541H138.102V73.6395H144.326V65.541H146.78V73.6395H153.566V65.541H156.021V73.6395H162.245V65.541H164.699V73.6395H167.683V74.8565H164.699ZM146.78 74.8565V78.7971H153.55V74.8565H146.78ZM153.55 230.901V226.961H146.78V230.901H153.55ZM146.78 232.133V236.059H153.55V232.133H146.78ZM153.55 225.729V222.542H146.78V225.729H153.55ZM153.55 221.325V217.384H146.78V221.325H153.55ZM153.55 216.153V212.212H146.764V216.153H153.55ZM153.55 210.995V207.055H146.78V210.995H153.55ZM153.55 205.823V201.883H146.78V205.823H153.55ZM153.55 200.666V196.725H146.78V200.666H153.55ZM153.55 195.494V191.973H146.78V195.494H153.55ZM153.55 190.756V186.816H146.78V190.756H153.55ZM153.55 185.584V181.644H146.78V185.584H153.55ZM153.55 180.427V176.486H146.764V180.427H153.55ZM153.55 175.255V171.314H146.78V175.255H153.55ZM153.55 170.097V166.157H146.78V170.097H153.55ZM153.55 164.925V161.738H146.78V164.925H153.55ZM153.55 160.506V156.58H146.78V160.506H153.55ZM153.55 155.349V151.408H146.78V155.349H153.55ZM153.55 150.177V146.236H146.78V150.177H153.55ZM153.55 145.019V141.079H146.764V145.019H153.55ZM153.55 139.847V135.907H146.78V139.847H153.55ZM153.55 134.69V130.923H146.78V134.69H153.55ZM153.55 129.706V125.765H146.78V129.706H153.55ZM153.55 124.534V120.593H146.78V124.534H153.55ZM153.55 119.377V115.436H146.78V119.377H153.55ZM153.55 114.204V110.264H146.764V114.204H153.55ZM153.55 109.032V105.106H146.78V109.032H153.55ZM153.55 103.875V100.688H146.78V103.875H153.55ZM153.55 99.4562V95.5156H146.78V99.4562H153.55ZM153.55 94.2987V90.3581H146.78V94.2987H153.55ZM153.55 89.1266V85.186H146.78V89.1266H153.55ZM153.55 83.9691V80.0285H146.78V83.9691H153.55ZM138.086 78.7971H144.31V74.8565H138.086V78.7971ZM138.086 83.9691H144.31V80.0285H138.086V83.9691ZM138.086 89.1266H144.31V85.186H138.086V89.1266ZM138.086 94.2987H144.31V90.3581H138.086V94.2987ZM138.086 99.4707H144.31V95.5301H138.086V99.4707ZM138.086 103.875H144.31V100.688H138.086V103.875ZM138.086 109.047H144.31V105.106H138.086V109.047ZM138.086 114.204H144.31V110.278H138.086V114.204ZM138.086 119.362H144.31V115.421H138.086V119.362ZM138.086 124.534H144.31V120.593H138.086V124.534ZM138.086 129.692H144.31V125.751H138.086V129.692ZM138.086 134.69H144.31V130.923H138.086V134.69ZM138.086 139.862H144.31V135.921H138.086V139.862ZM138.086 145.019H144.31V141.079H138.086V145.019ZM138.086 150.191H144.31V146.251H138.086V150.191ZM138.086 155.349H144.31V151.423H138.086V155.349ZM138.086 160.506H144.31V156.566H138.086V160.506ZM138.086 164.925H144.31V161.738H138.086V164.925ZM138.086 170.083H144.31V166.142H138.086V170.083ZM138.086 175.255H144.31V171.314H138.086V175.255ZM138.086 180.427H144.31V176.486H138.086V180.427ZM138.086 185.584H144.31V181.644H138.086V185.584ZM138.086 190.756H144.31V186.816H138.086V190.756ZM138.086 195.494H144.31V191.988H138.086V195.494ZM138.086 200.651H144.31V196.711H138.086V200.651ZM138.086 205.823H144.31V201.883H138.086V205.823ZM138.086 210.981H144.31V207.04H138.086V210.981ZM138.086 216.153H144.31V212.212H138.086V216.153ZM138.086 221.325H144.31V217.384H138.086V221.325ZM138.086 225.729H144.31V222.542H138.086V225.729ZM138.086 230.901H144.31V226.961H138.086V230.901ZM138.086 236.059H144.31V232.118H138.086V236.059ZM162.229 232.133H156.004V236.059H162.229V232.133ZM162.229 226.975H156.004V230.916H162.229V226.975ZM162.229 222.556H156.004V225.744H162.229V222.556ZM162.229 217.399H156.004V221.339H162.229V217.399ZM162.229 212.227H156.004V216.167H162.229V212.227ZM162.229 207.055H156.004V210.995H162.229V207.055ZM162.229 201.897H156.004V205.838H162.229V201.897ZM162.229 196.725H156.004V200.666H162.229V196.725ZM162.229 191.988H156.004V195.508H162.229V191.988ZM162.229 186.816H156.004V190.756H162.229V186.816ZM162.229 181.644H156.004V185.584H162.229V181.644ZM162.229 176.486H156.004V180.427H162.229V176.486ZM162.229 171.314H156.004V175.255H162.229V171.314ZM162.229 166.142H156.004V170.083H162.229V166.142ZM162.229 161.738H156.004V164.925H162.229V161.738ZM162.229 156.566H156.004V160.506H162.229V156.566ZM162.229 151.408H156.004V155.349H162.229V151.408ZM162.229 146.236H156.004V150.177H162.229V146.236ZM162.229 141.064H156.004V145.005H162.229V141.064ZM162.229 135.907H156.004V139.847H162.229V135.907ZM162.229 130.923H156.004V134.675H162.229V130.923ZM162.229 125.751H156.004V129.692H162.229V125.751ZM162.229 120.593H156.004V124.534H162.229V120.593ZM162.229 115.421H156.004V119.362H162.229V115.421ZM162.229 110.264H156.004V114.204H162.229V110.264ZM162.229 105.092H156.004V109.032H162.229V105.092ZM162.229 100.673H156.004V103.86H162.229V100.673ZM162.229 95.5156H156.004V99.4562H162.229V95.5156ZM162.229 90.3436H156.004V94.2842H162.229V90.3436ZM162.229 85.186H156.004V89.1121H162.229V85.186ZM162.229 80.0285H156.004V83.9691H162.229V80.0285ZM162.229 74.8565H156.004V78.7971H162.229V74.8565Z" fill="url(#paint6_linear_202_937)"/>
<path d="M196.703 0H197.569V13.9804H196.703V0Z" fill="url(#paint7_linear_202_937)"/>
<path d="M244.91 0H245.792V13.9804H244.91V0Z" fill="url(#paint8_linear_202_937)"/>
<path d="M202.801 0H203.667V13.9804H202.801V0Z" fill="url(#paint9_linear_202_937)"/>
<path d="M250.14 0V13.9804H249.273V0H250.14Z" fill="url(#paint10_linear_202_937)"/>
<path d="M74.7392 206.75L70.039 225.279C71.1619 225.815 71.7234 227.438 71.2902 229.162L70.8411 230.93C70.825 231.016 70.7929 231.132 70.7448 231.219L65.5312 230.133C65.5312 230.046 65.5633 229.93 65.5794 229.843L66.0285 228.076C66.4777 226.352 67.761 225.106 69.0283 225.077L73.7286 206.547C73.7927 206.301 74.0654 206.141 74.3382 206.199C74.6269 206.257 74.8034 206.504 74.7392 206.75Z" fill="#7053C0"/>
<path d="M60.7031 230.104C60.7031 230.104 71.5313 227.569 74.9963 229.64C78.4453 231.698 73.2317 233.885 73.2317 233.885L60.7031 230.104Z" fill="#9B774A"/>
<path d="M144.36 118.377C142.29 124.114 130.997 134.009 129.441 134.994C129.441 134.994 126.81 131.039 127.339 128.822C127.773 127.011 132.168 120.579 133.676 117.406C133.751 117.242 133.82 117.087 133.884 116.942C134.077 116.464 134.189 116.088 134.173 115.856C134.093 115.175 131.703 113.494 128.912 111.51C125.302 108.931 121.035 105.831 120.345 103.686C119.11 99.8907 114.875 84.8672 114.875 84.8672C114.875 84.8672 125.414 86.9244 128.398 89.3004C131.366 91.6763 144.151 111.437 144.681 116.493C144.729 117.044 144.616 117.681 144.36 118.377Z" fill="#8563CD"/>
<path d="M144.36 118.379C142.291 124.116 130.997 134.011 129.441 134.996C129.441 134.996 126.811 131.041 127.34 128.824C127.789 126.926 132.634 119.9 133.885 116.944C135.746 116.655 140.157 116.292 144.36 118.379Z" fill="#F7C9A5"/>
<path d="M114.875 83.5492L114.859 84.7082C114.859 84.7082 115.212 88.359 110.239 88.8951C105.266 89.4311 101.512 87.794 101.656 84.9834C102.106 82.8103 102.571 80.9849 102.603 79.174C102.619 78.5075 102.571 77.7977 102.426 76.9864L112.067 76.8125L114.907 77.2326L114.875 83.5492Z" fill="#F7C9A5"/>
<path d="M114.906 77.2326L114.874 83.5492C113.847 83.9838 112.692 84.2446 111.393 84.2446C106.966 84.2446 104.094 81.3036 102.602 79.174C102.618 78.5075 102.57 77.7977 102.426 76.9864L112.067 76.8125L114.906 77.2326Z" fill="#CB7D45"/>
<path d="M95.1602 238.362C95.4649 233.379 96.8445 232.307 96.8445 232.307C96.8445 232.307 103.742 231.061 104.817 233.031C105.908 234.987 106.373 238.275 106.373 238.275L95.1602 238.362Z" fill="#6138A3"/>
<path d="M129.873 238.261C128.253 237.378 129.167 230.713 129.167 230.713C129.167 230.713 136.723 225.252 137.766 229.424C138.792 233.611 144.936 235.48 148.417 235.987C150.84 236.349 151.578 237.551 151.818 238.261H129.873Z" fill="#6138A3"/>
<path d="M103.131 142.268C103.291 134.213 129.68 140.587 129.68 140.587C129.68 140.587 131.492 147.179 131.861 156.741C132.583 175.705 134.556 207.751 139.914 230.004C140.139 230.946 139.449 231.887 138.422 232.177C135.952 232.887 131.236 235.06 128.236 234.032C126.311 233.38 115.483 205.1 114.777 192.742C114.729 191.844 114.536 190.584 114.232 189.062C111.873 177.313 102.986 149.381 103.131 142.268Z" fill="#7053C0"/>
<path d="M103.131 142.268C103.291 134.213 129.68 140.587 129.68 140.587C129.68 140.587 131.492 147.179 131.861 156.741L114.232 189.062C111.873 177.313 102.986 149.381 103.131 142.268Z" fill="#6138A3"/>
<path d="M120.101 142.297L106.145 233.64C106.145 233.64 100.017 234.973 95.2525 233.901C95.2525 233.901 91.1618 185.324 91.4987 173.575C91.8516 161.84 88.5791 142.152 92.2527 139.979C95.9262 137.805 120.101 142.297 120.101 142.297Z" fill="#7053C0"/>
<path d="M130.448 142.455C130.448 142.455 123.31 146.222 112.979 146.106C108.952 146.077 105.455 145.802 102.487 145.396C94.1939 144.295 90.007 142.194 90.0551 141.426C90.0711 140.716 90.1353 138.384 90.2316 137.384C91.547 123.679 90.8572 113.016 92.6378 105.005C92.6592 104.908 92.6806 104.812 92.702 104.715C95.0441 94.5303 98.7176 88.6774 100.546 86.2725C101.204 85.4032 101.621 84.9831 101.653 84.9831C101.653 86.8809 106.129 88.518 109.786 88.3152C112.866 88.1269 114.856 86.0117 114.856 84.8672H114.872C115.112 84.8672 128.748 93.4293 128.764 101.368C128.812 137.008 131.202 142.469 130.448 142.455Z" fill="#8563CD"/>
<path d="M102.503 145.281C102.493 145.32 102.487 145.358 102.487 145.397C94.1939 144.296 90.007 142.195 90.0551 141.427C90.0711 140.718 90.1353 138.385 90.2316 137.385C91.547 123.68 90.8572 113.017 92.6378 105.006C96.9851 110.25 105.92 123.999 102.503 145.281Z" fill="#C5C5C5"/>
<path d="M125.188 128.243L124.081 131.59L122.974 134.908L74.9133 121.854C74.8492 121.854 74.785 121.845 74.7208 121.825C74.6567 121.806 74.5925 121.782 74.5283 121.753C73.9348 121.362 73.8225 119.942 74.2877 118.348C74.3091 118.252 74.3358 118.16 74.3679 118.073C74.9294 116.349 75.956 115.089 76.7421 115.074C76.8062 115.074 76.8651 115.084 76.9185 115.103C76.9827 115.113 77.0415 115.137 77.095 115.176L125.188 128.243Z" fill="#E9F3FE"/>
<path d="M124.081 131.589L122.974 134.907L74.9133 121.854C74.8492 121.854 74.785 121.844 74.7208 121.825C74.6567 121.805 74.5925 121.781 74.5283 121.752C73.9348 121.361 73.8225 119.941 74.2877 118.348C76.2448 119.666 85.6292 125.562 101.639 128.431C118.194 131.386 123.311 131.575 124.081 131.589Z" fill="#BED4F4"/>
<path d="M125.637 131.966C125.028 133.835 123.889 135.168 123.087 134.95C122.284 134.733 122.124 133.053 122.734 131.198C123.343 129.344 124.482 128.011 125.284 128.214C126.086 128.431 126.247 130.112 125.637 131.966Z" fill="#AFCDFB"/>
<path d="M121.355 120.376L120.745 123.824L120.119 127.258L70.5826 119.999C70.5184 120.009 70.4542 120.009 70.3901 119.999C70.3259 119.99 70.2617 119.971 70.1976 119.942C70.1869 119.932 70.1762 119.927 70.1655 119.927C69.8447 119.753 69.604 119.304 69.4757 118.681C69.3474 118.102 69.3474 117.377 69.4436 116.595C69.465 116.498 69.481 116.407 69.4917 116.32C69.7965 114.552 70.6307 113.161 71.4007 113.06C71.4649 113.05 71.529 113.05 71.5932 113.06C71.6574 113.07 71.7215 113.089 71.7857 113.118L77.4484 113.944L121.355 120.376Z" fill="#E9F3FE"/>
<path d="M120.745 123.824L120.119 127.258L70.5826 119.999C70.5184 120.009 70.4542 120.009 70.3901 119.999C70.3259 119.99 70.2617 119.971 70.1976 119.942C70.1869 119.932 70.1762 119.927 70.1655 119.927C70.0051 119.826 69.7324 119.362 69.4757 118.681C69.3474 118.102 69.3474 117.377 69.4436 116.595C69.465 116.498 69.481 116.407 69.4917 116.32C69.7965 114.552 70.6307 113.161 71.4007 113.06C71.4649 113.05 71.529 113.05 71.5932 113.06C71.6574 113.07 71.7215 113.089 71.7857 113.118L77.4484 113.944C81.8278 117.681 87.4424 122.738 98.03 123.361C114.874 124.331 119.975 123.911 120.745 123.824Z" fill="#BED4F4"/>
<path d="M122.334 124.026C122.013 125.953 121.066 127.402 120.232 127.286C119.414 127.17 119.013 125.518 119.35 123.606C119.671 121.694 120.617 120.23 121.451 120.346C122.27 120.462 122.671 122.114 122.334 124.026Z" fill="#AFCDFB"/>
<path d="M103.823 133.517C92.3367 131.866 84.7329 127.52 81.6208 125.419C80.5621 124.695 80.0167 124.245 80.0167 124.245C74.1293 113.061 84.781 93.4596 86.7221 90.1419C88.8236 86.5635 101.657 84.9844 101.657 84.9844C101.657 84.9844 99.6036 90.4317 98.8015 97.516C97.9994 104.615 89.4652 118.45 89.8181 119.609C89.9144 119.899 90.9411 120.508 92.449 121.29C96.8926 123.579 105.523 127.273 106.036 128.143C106.742 129.302 103.823 133.517 103.823 133.517Z" fill="#F7C9A5"/>
<path d="M106.034 128.142C106.034 128.142 112.451 125.824 114.039 126.766C115.611 127.722 118.242 129.142 118.242 130.098C118.242 131.04 114.905 133.575 112.114 134.358C109.307 135.154 103.82 133.517 103.82 133.517L106.034 128.142Z" fill="#F7C9A5"/>
<path d="M98.8015 97.516C97.9994 104.615 89.4652 118.45 89.8181 119.609C89.9144 119.899 90.9411 120.508 92.449 121.29C92.3527 121.29 92.2565 121.29 92.1602 121.29C85.4388 121.029 82.3908 124.376 81.6208 125.419C80.5621 124.695 80.0167 124.245 80.0167 124.245C74.1293 113.061 84.781 93.4596 86.7221 90.1419C88.8236 86.5635 101.657 84.9844 101.657 84.9844C101.657 84.9844 99.6036 90.4317 98.8015 97.516Z" fill="#8563CD"/>
<path d="M115.466 80.3055C115.466 80.3055 103.114 82.551 101.687 75.5971C100.243 68.6286 97.6922 64.2244 105.521 62.4859C113.333 60.7619 115.418 63.1523 116.525 65.3834C117.632 67.6 118.643 79.5377 115.466 80.3055Z" fill="#F7C9A5"/>
<path d="M101.925 77.5946C101.925 77.5946 99.551 73.002 97.5458 70.9593C95.5566 68.9166 96.6475 58.6884 105.246 59.0216C113.844 59.3548 116.924 64.9035 117.004 65.9611C117.101 67.0332 110.139 66.2074 108.23 67.5982C106.337 68.989 108.133 71.278 105.968 72.1038C103.802 72.9151 102.07 72.9151 102.439 74.7116C102.807 76.508 101.925 77.5946 101.925 77.5946Z" fill="#6138A3"/>
<path d="M119.688 64.8174C119.688 64.8174 115.1 66.2662 113.48 66.3676C112.998 66.4111 105.86 66.8457 105.86 66.8457C105.86 66.8457 104.528 68.222 104.175 69.5404C103.822 70.8587 97.0528 71.641 96.5876 70.9601C96.1224 70.2792 95.4486 68.5118 95.4486 68.5118C95.4486 68.5118 93.4113 61.5143 98.5126 57.1246C98.6409 57.0183 98.7692 56.9121 98.8976 56.8059C100.277 55.7338 102.122 54.8356 104.592 54.285C117.057 51.4455 119.64 64.4118 119.688 64.8174Z" fill="#8563CD"/>
<path d="M124.033 64.3535C118.338 67.0626 105.858 66.8453 105.858 66.8453C107.943 66.7294 109.772 66.4397 111.376 66.092C109.515 63.9333 104.093 58.1528 98.3984 57.2546C98.4412 57.2063 98.4786 57.1629 98.5107 57.1242C98.607 57.0083 98.6872 56.9504 98.8476 56.791C98.869 56.791 98.885 56.7958 98.8957 56.8055C105.906 58.3122 111.28 63.4842 113.157 65.6429C117.183 64.4839 119.205 62.9772 119.205 62.9772C121.611 63.0496 123.071 63.2669 123.921 63.4553C124.402 63.5567 124.466 64.1362 124.033 64.3535Z" fill="#C5C5C5"/>
<path d="M136.629 114.596C136.388 115.784 135.682 117.03 133.677 117.406C133.752 117.242 133.821 117.088 133.886 116.943C134.078 116.465 134.19 116.088 134.174 115.856C134.094 115.175 131.704 113.495 128.913 111.51C128.688 110.394 128.127 107.048 128.913 104.397C129.875 101.151 136.885 113.248 136.629 114.596Z" fill="#C5C5C5"/>
<path d="M92.4477 121.289C88.8704 120.941 81.6195 125.418 81.6195 125.418C79.9672 125.881 79.7266 124.36 79.7266 124.36C82.5178 119.854 91.1002 120.492 91.1002 120.492C91.8862 120.492 92.4477 121.289 92.4477 121.289Z" fill="#C5C5C5"/>
<path d="M144.468 118.045C144.965 118.682 143.714 119.783 143.714 119.783C138.115 117.581 133.672 117.407 133.672 117.407C136.078 115.147 143.971 117.422 144.468 118.045Z" fill="#C5C5C5"/>
<path d="M183.66 138.861C177.356 134.834 178.318 132.139 178.318 132.139C180.179 128.648 180.532 126.822 180.58 126.446C179.746 122.577 178.623 108.785 179.521 99.5858C179.762 97.1085 180.035 95.0802 180.356 93.8198C181.928 87.4163 182.409 64.7579 187.125 61.2085C191.858 57.6446 202.83 56.1523 202.83 56.1523C202.83 56.1523 199.301 73.2331 195.451 91.0962C191.248 110.495 187.671 141.44 183.66 138.861Z" fill="#F7C9A5"/>
<path d="M202.832 56.1523C202.832 56.1523 200.795 66.0038 198.132 78.55C197.282 82.5341 196.383 86.7934 195.453 91.0962C191.667 97.7749 188.427 102.324 187.432 101.469C185.379 99.7307 181.801 99.5134 179.523 99.5858C179.764 97.1085 180.037 95.0802 180.358 93.8198C180.47 93.3127 180.598 92.7043 180.711 92.0089C182.026 83.9538 182.78 64.4827 187.127 61.2085C191.86 57.6446 202.832 56.1523 202.832 56.1523Z" fill="#E9E9FF"/>
<path d="M198.132 78.5501C197.282 82.5341 196.383 86.7934 195.453 91.0962C191.667 97.775 188.427 102.324 187.432 101.469C185.379 99.7308 181.801 99.5135 179.523 99.5859C179.764 97.1085 180.037 95.0803 180.358 93.8199C180.47 93.3128 180.598 92.7043 180.711 92.0089L192.036 67.3223L198.132 78.5501Z" fill="#9327D5"/>
<path d="M208.32 60.9201C202.416 60.2827 202.833 55.9654 202.833 55.9654C202.833 55.9654 202.839 55.9654 202.849 55.9654C202.785 51.3004 202.785 47.0991 202.785 47.0991L218.025 44.8535C218.538 48.3305 218.602 52.445 218.522 55.893C218.683 59.2396 214.207 61.5576 208.32 60.9201Z" fill="#F7C9A5"/>
<path d="M218.407 48.3443C218.407 48.3443 214.557 54.5884 210.45 54.5884C206.328 54.5884 202.734 47.9531 202.734 47.9531L218.407 48.3443Z" fill="#CB7D45"/>
<path d="M212.891 238.289C212.891 238.289 213.452 234.392 214.735 232.074C216.019 229.756 224.184 231.219 224.184 231.219C224.184 231.219 225.82 232.494 226.173 238.391L212.891 238.289Z" fill="#6138A3"/>
<path d="M159.07 238.232C159.343 237.392 160.225 235.957 163.081 235.537C167.22 234.943 174.486 232.712 175.722 227.772C176.941 222.817 185.892 229.279 185.892 229.279C185.892 229.279 186.983 237.174 185.058 238.232H159.07Z" fill="#6138A3"/>
<path d="M201.241 40.884C195.948 32.5247 201.626 24.7305 201.626 24.7305C203.279 26.2227 210.61 25.4548 210.61 25.4548C230.133 26.411 219.962 40.884 219.962 40.884C219.962 40.884 206.551 49.2433 201.241 40.884Z" fill="#6138A3"/>
<path d="M201.324 36.8258C201.356 36.2173 201.388 35.5798 201.42 34.9134C201.565 32.4216 204.998 30.5672 213.211 31.2046C217.687 31.5668 219.291 32.8562 219.772 35.1307C220.189 37.0431 219.82 39.6363 219.708 42.9395C219.612 45.7356 219.724 47.7348 217.927 48.7345C216.756 49.3719 210.308 50.6613 210.308 50.6613C209.056 50.5454 204.725 49.5023 203.233 48.4447C201.677 47.3437 201.003 44.5911 201.324 36.8258Z" fill="#F7C9A5"/>
<path d="M203.585 179.571C203.232 181.382 202.991 182.874 202.927 183.932C202.109 198.578 189.276 232.074 186.982 232.856C183.437 234.073 177.854 231.494 174.918 230.654C173.715 230.306 172.897 229.205 173.17 228.089C179.522 201.722 181.848 163.765 182.699 141.28C183.132 129.966 185.281 122.143 185.281 122.143C185.281 122.143 216.547 114.609 216.739 124.142C216.9 132.573 206.376 165.663 203.585 179.571Z" fill="#7053C0"/>
<path d="M203.586 179.571L182.699 141.28C183.132 129.966 185.282 122.143 185.282 122.143C185.282 122.143 216.547 114.609 216.74 124.142C216.9 132.573 206.377 165.663 203.586 179.571Z" fill="#6138A3"/>
<path d="M229.622 121.433C233.986 124.012 230.104 147.322 230.505 161.23C230.906 175.152 226.077 232.697 226.077 232.697C220.431 233.972 213.164 232.378 213.164 232.378L196.641 124.171C196.641 124.171 225.259 118.868 229.622 121.433Z" fill="#7053C0"/>
<path d="M231.999 121.434C232.063 122.694 230.956 123.737 229.577 123.752L203.525 124.114L184.387 124.375C183.489 124.389 186.312 117.913 186.376 75.6968C186.392 66.2799 202.547 56.1387 202.835 56.1387V56.1532C202.835 57.5005 205.209 60.0068 208.851 60.2241C213.182 60.4849 218.492 58.5291 218.492 56.2835C218.492 56.2546 218.989 56.7471 219.807 57.8192C221.957 60.6588 226.32 67.5838 229.096 79.6519C231.293 89.1846 230.443 101.919 232.031 118.362C232.144 119.55 231.967 120.608 231.999 121.434Z" fill="#8563CD"/>
<path d="M231.037 123.882C231.037 123.882 227.572 125.287 221.107 126.504C216.278 127.403 209.797 128.199 201.841 128.243C189.184 128.315 184.387 124.375 184.387 124.375C183.489 124.389 186.312 117.913 186.376 75.6968C186.392 66.2799 202.547 56.1387 202.835 56.1387V56.1532C202.835 56.1532 202.434 68.6993 206.621 72.3791C206.621 72.3791 212.524 68.2647 220.16 56.5733C222.326 59.4128 226.32 67.5838 229.096 79.6519C229.657 82.1147 230.026 84.7804 230.283 87.6634C231.021 95.9937 230.844 106.164 232.031 118.362C232.144 119.55 231.967 120.608 231.999 121.434C232.063 122.694 232.432 123.868 231.037 123.882Z" fill="#E9E9FF"/>
<path d="M231.034 123.883C231.034 123.883 227.569 125.288 221.104 126.505C219.067 123.694 216.484 118.624 216.131 110.641C215.538 97.1389 229.735 79.7539 229.735 79.7539L230.28 87.6641C231.018 95.9944 230.842 106.165 232.029 118.363C232.141 119.551 231.965 120.609 231.997 121.434C232.061 122.695 232.43 123.868 231.034 123.883Z" fill="#9327D5"/>
<path d="M237.916 108.163L213.709 120.782L194.539 90.7924L218.746 78.1738L237.916 108.163Z" fill="#7053C0"/>
<path d="M241.702 106.222C241.702 106.222 236.745 106.656 228.275 105.859C222.195 105.309 214.318 104.106 205.159 101.672C204.934 101.701 204.726 101.701 204.549 101.687C203.266 101.571 198.341 100.528 197.154 100.108C195.967 99.6877 196.127 97.7898 196.56 96.7323C196.977 95.6747 201.148 94.2984 202.592 94.2984C204.02 94.2984 207.677 97.3987 207.773 97.4566C208.848 97.4132 219.147 96.9641 226.799 95.9644C228.804 95.6892 230.633 95.3849 232.061 95.0372C233.825 94.6171 225.099 74.6533 220.703 62.904C219.644 60.1079 218.842 57.7754 218.489 56.2832C218.489 56.2832 219.259 56.3991 220.462 56.6164C223.895 57.2249 230.858 58.6592 233.825 60.6874C237.836 63.411 247.83 94.2839 241.702 106.222Z" fill="#F7C9A5"/>
<path d="M241.7 106.221C241.7 106.221 236.743 106.655 228.273 105.859C228.739 103.787 229.172 99.7305 226.798 95.9637C228.803 95.6885 230.632 95.3842 232.059 95.0365C233.824 94.6164 225.097 74.6526 220.702 62.9033C220.349 59.1076 220.156 56.5723 220.156 56.5723L220.461 56.6157C223.894 57.2242 230.856 58.6585 233.824 60.6867C237.834 63.4104 247.828 94.2832 241.7 106.221Z" fill="#E9E9FF"/>
<path d="M215.023 62.3107C215.97 60.6011 218.536 54.8496 218.536 54.8496C221.456 55.0669 223.814 57.269 223.814 57.269C223.814 57.269 223.541 62.47 223.204 63.1075C222.851 63.7449 217.189 63.2668 217.189 63.2668C218.007 64.1071 218.761 66.9467 218.584 67.3233C218.408 67.6855 206.617 72.3795 206.617 72.3795C206.617 72.3795 212.521 66.8452 215.023 62.3107Z" fill="#9327D5"/>
<path d="M203.828 63.1077C203.828 63.1077 204.582 68.584 206.619 72.3797C206.619 72.3797 200.475 68.5115 199.946 67.2366C199.416 65.9762 201.438 63.5278 201.438 63.5278C201.438 63.5278 197.748 63.4554 197.668 62.3398C197.588 61.2388 198.807 56.8926 198.807 56.8926C198.807 56.8926 201.967 54.8064 202.849 54.8788L203.828 63.1077Z" fill="#9327D5"/>
<path d="M223.782 32.8281L197.602 33.0744C197.602 33.0744 197.217 25.9465 201.757 21.3975C201.96 21.185 202.179 20.9822 202.414 20.789C203.393 19.9487 204.564 19.2243 205.992 18.6883C211.221 16.718 215.553 18.5434 218.264 20.3978C218.542 20.5813 218.793 20.7648 219.018 20.9484C220.493 22.0784 221.328 23.0925 221.328 23.0925C221.328 23.0925 223.862 26.2218 223.782 32.8281Z" fill="#8563CD"/>
<path d="M223.782 32.8277C223.782 32.8277 215.071 34.5807 209.825 34.6386C204.58 34.6966 197.602 33.074 197.602 33.074L205.077 33.0015C204.852 27.786 202.542 22.2084 201.933 21.2377C202.141 21.0204 202.173 20.9914 202.414 20.7886C202.831 21.426 206.376 27.1921 206.617 32.9871L214.991 32.9001C214.975 31.886 215.247 23.8454 218.632 20.6582C218.905 20.8465 218.841 20.8031 219.065 20.9914C215.889 23.7585 216.354 31.9295 216.419 32.8856L223.782 32.8277Z" fill="#C5C5C5"/>
<defs>
<linearGradient id="paint0_linear_202_937" x1="30.6322" y1="197.321" x2="181.018" y2="138.633" gradientUnits="userSpaceOnUse">
<stop stop-color="#C6C1FF"/>
<stop offset="1" stop-color="#FEC1FF"/>
</linearGradient>
<linearGradient id="paint1_linear_202_937" x1="200.756" y1="198.756" x2="304.104" y2="172.314" gradientUnits="userSpaceOnUse">
<stop stop-color="#C6C1FF"/>
<stop offset="1" stop-color="#FEC1FF"/>
</linearGradient>
<linearGradient id="paint2_linear_202_937" x1="198.48" y1="70.1126" x2="229.162" y2="31.3334" gradientUnits="userSpaceOnUse">
<stop stop-color="#C6C1FF"/>
<stop offset="1" stop-color="#FEC1FF"/>
</linearGradient>
<linearGradient id="paint3_linear_202_937" x1="198.48" y1="131.046" x2="229.162" y2="92.267" gradientUnits="userSpaceOnUse">
<stop stop-color="#C6C1FF"/>
<stop offset="1" stop-color="#FEC1FF"/>
</linearGradient>
<linearGradient id="paint4_linear_202_937" x1="198.48" y1="191.199" x2="229.162" y2="152.419" gradientUnits="userSpaceOnUse">
<stop stop-color="#C6C1FF"/>
<stop offset="1" stop-color="#FEC1FF"/>
</linearGradient>
<linearGradient id="paint5_linear_202_937" x1="263.567" y1="198.863" x2="409.166" y2="142.172" gradientUnits="userSpaceOnUse">
<stop stop-color="#C6C1FF"/>
<stop offset="1" stop-color="#FEC1FF"/>
</linearGradient>
<linearGradient id="paint6_linear_202_937" x1="135.974" y1="207.276" x2="183.043" y2="200.319" gradientUnits="userSpaceOnUse">
<stop stop-color="#C6C1FF"/>
<stop offset="1" stop-color="#FEC1FF"/>
</linearGradient>
<linearGradient id="paint7_linear_202_937" x1="196.791" y1="11.5372" x2="197.969" y2="11.4848" gradientUnits="userSpaceOnUse">
<stop stop-color="#C6C1FF"/>
<stop offset="1" stop-color="#FEC1FF"/>
</linearGradient>
<linearGradient id="paint8_linear_202_937" x1="245" y1="11.5372" x2="246.2" y2="11.4828" gradientUnits="userSpaceOnUse">
<stop stop-color="#C6C1FF"/>
<stop offset="1" stop-color="#FEC1FF"/>
</linearGradient>
<linearGradient id="paint9_linear_202_937" x1="202.889" y1="11.5372" x2="204.067" y2="11.4848" gradientUnits="userSpaceOnUse">
<stop stop-color="#C6C1FF"/>
<stop offset="1" stop-color="#FEC1FF"/>
</linearGradient>
<linearGradient id="paint10_linear_202_937" x1="249.362" y1="11.5372" x2="250.539" y2="11.4848" gradientUnits="userSpaceOnUse">
<stop stop-color="#C6C1FF"/>
<stop offset="1" stop-color="#FEC1FF"/>
</linearGradient>
</defs>
</svg>
