<svg width="412" height="239" viewBox="0 0 412 239" fill="none" xmlns="http://www.w3.org/2000/svg">
<path d="M17.3144 238.996C9.50433 231.722 5.89752 220.898 6.52233 209.673C7.30333 190.456 18.1522 171.887 29.8388 159.07C39.9066 148.194 47.3048 142.529 51.7495 133.786C56.5775 124.746 56.4497 113.276 54.7173 102.61C52.5873 89.5307 47.5462 75.2801 55.3137 55.6441C65.4809 29.5209 90.9132 14.0289 98.0132 10.3745C129.182 -5.74704 184.818 -3.22915 217.833 18.9773C239.332 33.3677 250.465 54.2977 257.622 62.6382C262.421 68.7406 266.894 72.8672 272.39 73.3218C277.005 73.689 284.431 71.818 285.695 71.4334C298.688 68.216 315.529 62.4983 334.984 68.2161C362.674 76.2943 395.192 110.531 400.815 154.804C405.018 185.508 398.642 210.617 388.418 238.978C388.418 239.013 17.3428 238.996 17.3144 238.996Z" fill="url(#paint0_linear_202_1108)"/>
<path d="M285.697 71.4343C295.793 68.9339 308.204 64.9297 322.347 65.9439L55.798 114.029C55.727 110.217 55.3294 106.37 54.7188 102.611C53.7816 96.893 52.3048 90.9655 51.5664 84.4434L229.394 28.123C243.565 41.1496 251.872 55.9423 257.623 62.6392C262.423 68.7416 266.896 72.8681 272.391 73.3227C277.006 73.6899 284.433 71.819 285.697 71.4343Z" fill="#F4D5FF"/>
<path d="M52.6133 64.2117C53.2523 61.4665 54.1327 58.6163 55.3113 55.6438C55.3208 55.6089 55.335 55.5739 55.3539 55.5389L146.177 19.4316L52.6133 64.2117Z" fill="#F4D5FF"/>
<path d="M154.516 24.24C154.516 21.5822 156.262 19.4141 158.421 19.4141C160.579 19.4141 162.34 21.5822 162.34 24.24C162.34 26.8978 160.579 29.0485 158.421 29.0485C156.262 29.0485 154.516 26.8978 154.516 24.24Z" fill="#F4D5FF"/>
<path d="M284.13 133.997C284.13 145.573 277.839 154.962 270.1 154.962C269.177 154.962 268.268 154.84 267.402 154.578C264.264 161.309 256.951 166.031 248.431 166.031C237.043 166.031 227.812 157.62 227.812 147.216C227.812 141.394 230.709 136.183 235.268 132.738C233.933 129.031 233.166 124.695 233.166 120.079C233.166 110.392 236.531 101.999 241.43 97.8901C242.41 83.0275 247.877 71.6445 254.466 71.6445C261.396 71.6445 267.061 84.1815 267.629 100.146C268.084 99.9533 268.581 99.8484 269.078 99.8484C272.5 99.8484 275.269 104.622 275.269 110.532C275.269 111.843 275.127 113.102 274.886 114.274C280.267 117.194 284.13 124.922 284.13 133.997Z" fill="#FFF5D2"/>
<path d="M284.13 133.996C284.13 145.571 277.839 154.961 270.1 154.961C269.177 154.961 268.268 154.839 267.402 154.576C264.264 161.308 256.951 166.029 248.431 166.029C237.043 166.029 227.812 157.619 227.812 147.215C227.812 141.392 230.709 136.182 235.268 132.737C233.933 129.03 233.166 124.694 233.166 120.078C233.166 114.028 234.472 108.467 236.659 104.166C233.18 112.611 240.422 130.796 250.831 119.256C261.225 107.733 274.886 114.273 274.886 114.273C280.267 117.193 284.13 124.921 284.13 133.996Z" fill="#C5C6AE"/>
<path d="M335.45 123.855C335.45 142.967 325.652 158.459 313.567 158.459C310.883 158.459 308.313 157.689 305.928 156.29C303.386 154.787 300.319 156.011 298.941 159.053C295.32 167.096 289.001 172.429 281.816 172.429C270.57 172.429 261.453 159.35 261.453 143.229C261.453 130.604 267.048 119.851 274.872 115.777C274.503 114.151 274.304 112.402 274.304 110.549C274.304 102.348 278.323 95.6862 283.293 95.6862C284.031 95.6862 284.727 95.8436 285.409 96.1058C286.218 73.8819 294.468 56.4141 304.508 56.4141C314.078 56.4141 322.016 72.2558 323.451 92.976C330.565 98.6762 335.45 110.356 335.45 123.855Z" fill="#FFF5D2"/>
<path d="M331.244 144.261C327.268 152.864 320.835 158.459 313.565 158.459C310.441 158.459 307.459 157.428 304.761 155.539C302.886 154.228 300.501 155.19 299.564 157.568C296.07 166.45 289.425 172.43 281.814 172.43C270.908 172.43 259.008 161.187 258.469 145.748L259.236 141.569C259.236 141.569 271.334 119.17 295.531 132.721C295.531 132.721 298.584 105.759 319.018 109.151C339.267 112.525 331.386 143.719 331.244 144.261Z" fill="#C5C6AE"/>
<path d="M300.5 238.174C299.96 238.174 299.406 238.226 299.406 237.579V107.89C299.406 107.226 299.832 106.684 300.372 106.684C300.911 106.684 301.352 107.226 301.352 107.89V237.579C301.352 238.226 301.039 238.174 300.5 238.174Z" fill="#FFD7BA"/>
<path d="M300.091 150.309C297.095 150.309 294.525 148.141 292.437 143.84C290.875 140.605 289.583 136.129 288.589 130.534C286.928 121.126 286.672 111.579 286.672 111.492C286.658 110.828 287.084 110.286 287.624 110.268C288.163 110.251 288.603 110.758 288.618 111.422C288.618 111.509 288.859 120.864 290.492 130.061C291.94 138.21 294.78 147.914 300.091 147.914C300.631 147.914 301.071 148.456 301.071 149.121C301.071 149.785 300.631 150.309 300.091 150.309Z" fill="#FFD7BA"/>
<path d="M300.473 181.103C300.416 181.103 300.364 181.097 300.316 181.085C299.777 181.05 299.379 180.491 299.408 179.827C299.436 179.162 299.905 178.655 300.43 178.707C300.558 178.707 300.757 178.69 301.055 178.34C302.262 176.906 304.434 170.979 305.301 147.356C305.812 133.753 305.627 120.778 305.627 120.656C305.613 119.992 306.039 119.45 306.579 119.432C307.118 119.415 307.559 119.957 307.573 120.621C307.573 120.743 307.757 133.788 307.246 147.479C306.948 155.539 306.479 162.236 305.826 167.412C304.988 174.196 303.866 178.34 302.404 180.071C301.694 180.893 300.984 181.103 300.473 181.103Z" fill="#FFD7BA"/>
<path d="M258.839 237.913C258.3 237.913 257.859 237.371 257.859 236.706V107.017C257.859 106.353 258.3 105.828 258.839 105.828C259.379 105.828 259.805 106.353 259.805 107.017V236.706C259.805 237.371 259.379 237.913 258.839 237.913Z" fill="#FFD7BA"/>
<path d="M258.84 153.09C256.071 153.09 253.743 151.866 251.897 149.488C246.742 142.809 247.239 129.17 247.267 128.593C247.296 127.929 247.75 127.422 248.29 127.457C248.815 127.492 249.227 128.051 249.213 128.716C249.199 128.838 248.73 141.917 253.317 147.845C254.793 149.751 256.597 150.695 258.84 150.695C259.38 150.695 259.806 151.219 259.806 151.884C259.806 152.548 259.38 153.09 258.84 153.09Z" fill="#FFD7BA"/>
<path d="M258.968 180.229C258.902 180.229 258.841 180.229 258.784 180.229C258.244 180.194 257.832 179.617 257.861 178.952C257.903 178.305 258.358 177.798 258.897 177.833C259.267 177.868 259.636 177.676 260.033 177.239C261.226 175.91 263.512 171.259 265.287 154.91C266.31 145.45 266.665 136.638 266.665 136.55C266.693 135.886 267.148 135.379 267.673 135.414C268.213 135.431 268.624 136.008 268.61 136.655C268.596 136.743 268.241 145.66 267.204 155.225C266.594 160.855 265.87 165.611 265.06 169.353C263.981 174.284 262.76 177.449 261.326 179.022C260.601 179.827 259.806 180.229 258.968 180.229Z" fill="#FFD7BA"/>
<path d="M313.44 126.496C313.184 125.097 313.056 123.576 313.056 121.984C313.056 114.903 315.825 109.15 319.247 109.15C319.744 109.15 320.227 109.273 320.696 109.5C321.264 90.3184 326.93 75.2285 333.859 75.2285C340.448 75.2285 345.901 88.9021 346.895 106.79C351.794 111.72 355.159 121.827 355.159 133.472C355.159 139.033 354.392 144.243 353.058 148.702C357.616 152.846 360.513 159.106 360.513 166.117C360.513 178.619 351.283 188.761 339.894 188.761C331.374 188.761 324.061 183.078 320.923 174.983C320.057 175.28 319.148 175.437 318.225 175.437C310.486 175.437 304.195 164.142 304.195 150.223C304.195 139.312 308.058 130.01 313.44 126.496Z" fill="#FFF5D2"/>
<path d="M360.509 166.118C360.509 178.62 351.278 188.761 339.89 188.761C331.37 188.761 324.057 183.078 320.919 174.983C320.919 174.983 310.482 169.317 315.722 157.812C320.976 146.307 336.723 154.49 336.723 154.49C336.723 154.49 335.971 130.972 355.013 129.363C355.108 130.704 355.155 132.074 355.155 133.472C355.155 139.033 354.388 144.243 353.054 148.702C357.612 152.846 360.509 159.106 360.509 166.118Z" fill="#C5C6AE"/>
<path d="M333.645 238.017C333.106 238.017 332.68 237.475 332.68 236.811V136.042C332.68 135.378 333.106 134.836 333.645 134.836C334.185 134.836 334.625 135.378 334.625 136.042V236.811C334.625 237.475 334.185 238.017 333.645 238.017Z" fill="#FFD7BA"/>
<path d="M333.647 169.684C330.892 169.684 328.563 168.46 326.717 166.082C321.562 159.403 322.059 145.764 322.074 145.187C322.102 144.523 322.556 144.016 323.096 144.051C323.636 144.086 324.047 144.645 324.019 145.309C324.019 145.449 323.55 158.511 328.123 164.438C329.6 166.344 331.417 167.289 333.647 167.289C334.186 167.289 334.627 167.813 334.627 168.478C334.627 169.142 334.186 169.684 333.647 169.684Z" fill="#FFD7BA"/>
<path d="M334.425 208.834C334.359 208.834 334.293 208.834 334.227 208.834C333.701 208.799 333.289 208.222 333.318 207.575C333.36 206.911 333.815 206.404 334.354 206.439C334.724 206.474 335.093 206.281 335.476 205.844C336.683 204.515 338.969 199.864 340.73 183.515C341.767 174.056 342.108 165.243 342.122 165.156C342.136 164.491 342.59 163.984 343.13 164.019C343.67 164.054 344.081 164.614 344.053 165.261C344.053 165.366 343.698 174.266 342.661 183.83C342.051 189.46 341.327 194.217 340.503 197.976C339.438 202.889 338.217 206.054 336.783 207.628C336.058 208.432 335.263 208.834 334.425 208.834Z" fill="#FFD7BA"/>
<path d="M263.695 238.068C265.257 238.453 266.947 238.418 268.765 238.068H263.695Z" fill="#AFD295"/>
<path d="M385.986 238.068H217.176C234.202 234.728 279.741 221.125 288.659 221.894C298.499 222.733 335.633 211.176 338.501 218.991C339.992 223.066 346.212 222.051 353.34 220.827C351.281 219.324 349.222 217.523 350.898 217.365C352.545 217.19 354.064 218.957 355.087 220.548C355.645 220.443 356.204 220.35 356.762 220.268C354.362 216.404 351.267 210.738 353.965 210.861C356.606 210.966 357.998 216.211 358.637 219.988C361.562 219.568 364.487 219.324 367.157 219.534C366.674 214.131 366.489 207.101 368.733 205.877C371.431 204.409 371.615 213.449 370.181 220.023C370.655 220.151 371.118 220.297 371.573 220.46C373.092 215.057 375.804 208.57 379.908 209.06C384.324 209.584 379.127 216.876 374.739 222.121C383.387 227.647 385.986 238.068 385.986 238.068Z" fill="#AAAAAA"/>
<path d="M71.7241 216.841C81.5505 224.762 117.675 233.138 140.821 224.71C163.982 216.282 193.461 223.276 227.896 232.386C262.331 241.478 304.931 229.571 331.84 229.536C358.764 229.483 375.832 237.946 375.832 237.946L22.3789 238.646C23.9409 216.352 61.8976 208.938 71.7241 216.841Z" fill="#777777"/>
<path d="M296.786 236.67C298.192 236.39 300.648 235.376 301.188 233.156V233.138C301.207 233.068 301.226 232.998 301.245 232.928C301.671 230.55 304.823 233.663 304.823 233.663C304.823 233.663 304.837 233.75 304.851 233.908C304.922 234.782 305.107 237.614 304.511 237.982C304.473 238.005 304.411 238.028 304.326 238.052H295.352C295.423 237.667 295.692 236.88 296.786 236.67Z" fill="#2C3A64"/>
<path d="M310.175 188.655L312.873 176.31C312.873 176.31 325.028 167.2 325.88 172.463C327.599 183.532 317.36 197.502 315.443 203.989C315.145 204.934 315.06 205.668 315.145 206.263C315.997 211.158 305.503 233.767 305.503 233.767C304.311 235.096 300.32 233.61 300.32 233.61L310.175 188.655Z" fill="#A54D9C"/>
<path d="M312.87 176.31C312.87 176.31 325.025 167.2 325.877 172.463C327.595 183.532 317.357 197.502 315.44 203.989L310.172 188.655L312.87 176.31Z" fill="#AA3F8C"/>
<path d="M327.099 141.235C327.099 141.235 325.807 146.009 322.215 146.044C322.215 146.044 320.894 144.383 320.411 142.914C320.345 142.727 320.283 142.552 320.227 142.389C319.673 140.746 319.332 139.836 319.332 139.836C319.46 139.696 323.322 135.08 323.379 135.29C324.742 139.801 327.099 141.235 327.099 141.235Z" fill="#FFD0AF"/>
<path d="M323.251 136.584C323.138 137.807 322.257 140.553 320.227 142.389C319.673 140.745 319.332 139.836 319.332 139.836C319.446 139.731 323.294 136.216 323.251 136.584Z" fill="#ED975D"/>
<path d="M315.284 131.617C315.37 130.113 315.852 128.312 319.502 127.823C323.165 127.333 322.825 130.393 323.407 134.747C323.989 139.083 318.309 140.133 318.309 140.133C316.818 140.307 315.199 133.121 315.284 131.617Z" fill="#FFD0AF"/>
<path d="M322.611 134.52C322.626 134.013 322.469 131.477 321.575 132.439C320.694 133.401 320.467 133.034 320.24 132.544C320.013 132.072 319.203 130.621 318.28 130.708C317.357 130.778 315.611 133.89 313.211 133.506C313.211 133.506 314.39 131.32 314.418 129.379C314.432 127.526 314.475 125.672 316.917 125.095C319.374 124.501 322.526 124.378 323.804 125.55C325.082 126.721 325.423 128.61 325.352 129.589C324.926 135.814 323.676 135.936 323.577 135.919C322.839 135.744 322.611 134.52 322.611 134.52Z" fill="#35488B"/>
<path d="M316.223 236.67C317.629 236.39 320.086 235.376 320.625 233.156V233.138C320.644 233.068 320.663 232.998 320.682 232.928C321.108 230.55 324.275 233.663 324.275 233.663C324.275 233.663 324.275 233.75 324.289 233.908C324.36 234.782 324.559 237.614 323.948 237.982C323.91 238.005 323.849 238.028 323.763 238.052H314.789C314.86 237.667 315.144 236.88 316.223 236.67Z" fill="#2C3A64"/>
<path d="M330.04 176.345C330.04 176.345 327.825 195.247 327.243 204.899C327.001 208.763 327.626 213.851 327.243 218.642C326.66 225.794 325.169 233.61 325.169 233.61C325.169 233.61 322.088 235.184 319.944 233.61C319.944 233.61 318.936 211.596 319.078 208.571C319.22 205.546 315.954 172.936 316.664 172.778C317.374 172.621 330.04 176.345 330.04 176.345Z" fill="#A54D9C"/>
<path d="M314.45 165.609C314.791 160.975 314.748 145.798 315.998 143.84C316.381 143.21 317.872 142.633 320.101 142.161C320.57 142.528 321.351 143 322.501 143.105C324.603 143.367 327.088 141.199 327.088 141.199C331.362 140.937 334.358 145.955 333.762 151.166C333.592 152.81 333.379 154.541 333.166 156.394C332.044 166.343 330.595 177.849 329.616 179.685C328.323 182.01 320.783 181.328 315.998 180.471C314.024 180.052 312.575 179.632 312.107 179.37C310.516 178.426 314.066 170.26 314.45 165.609Z" fill="#2A4E96"/>
<path d="M327.102 141.234C327.102 141.234 331.56 140.028 333.832 142.388C336.104 144.749 340.847 159.891 339.853 161.639C339.64 162.024 336.829 162.391 335.749 161.639C334.684 160.905 327.102 141.234 327.102 141.234Z" fill="#2A4E96"/>
<path d="M328.024 164.192C328.79 160.24 332.994 155.852 332.994 155.852C333.079 155.974 333.121 156.131 333.164 156.394C332.042 166.343 330.594 177.848 329.614 179.684C328.322 182.01 320.782 181.328 315.996 180.471C318.907 178.53 327.385 167.777 328.024 164.192Z" fill="#1E3D70"/>
<path d="M315.995 143.84C315.995 143.84 318.224 145.064 317.401 149.697C317.103 151.376 316.038 153.387 314.788 155.223C314.021 156.447 313.127 157.548 312.36 158.545C312.005 158.912 311.707 159.227 311.408 159.559C310.684 160.346 310.13 160.871 309.79 161.028C309.662 161.08 309.577 161.133 309.534 161.133C309.491 161.133 309.406 161.08 309.364 160.923C308.625 160.294 306.836 158.073 306.836 158.073C311.11 148.264 315.995 143.84 315.995 143.84Z" fill="#2A4E96"/>
<path d="M314.788 155.223C314.022 156.447 313.127 157.549 312.36 158.545C312.005 158.913 311.707 159.227 311.409 159.56C310.727 160.189 310.131 160.766 309.79 161.028C309.662 161.081 309.577 161.133 309.534 161.133C309.492 161.133 309.407 161.081 309.364 160.923C308.881 160.137 308.242 157.024 308.242 157.024C308.242 157.024 314.32 154.594 314.788 155.223Z" fill="#1E3D70"/>
<path d="M309.51 161.115C309.51 161.115 303.234 160.87 297 155.187L297.114 152.967C297.114 152.967 306.471 155.135 307.764 156.062C309.042 157.006 309.51 161.115 309.51 161.115Z" fill="#FFD0AF"/>
<path d="M317.318 156.76C317.725 157.005 318.108 157.285 318.468 157.599C321.251 159.855 324.19 160.502 325.71 160.677C327.03 160.677 328.379 161.027 329.672 161.778C334.131 164.401 336.048 170.906 333.96 176.309C331.873 181.694 326.548 183.95 322.089 181.327C320.541 180.418 319.306 179.036 318.425 177.41C316.764 174.875 314.52 173.843 313.299 173.441C313.006 173.383 312.712 173.307 312.419 173.214C312.409 173.214 312.404 173.214 312.404 173.214C311.978 173.074 311.562 172.882 311.155 172.637C307.534 170.504 305.972 165.223 307.662 160.834C309.366 156.445 313.682 154.627 317.318 156.76Z" fill="#9E3530"/>
<path d="M292.353 151.707C292.623 151.007 293.29 150.728 293.858 151.042L318.041 165.276C318.595 165.608 318.836 166.447 318.566 167.129C318.311 167.828 317.629 168.126 317.061 167.793L292.878 153.56C292.325 153.228 292.083 152.389 292.353 151.707Z" fill="#BD3328"/>
<path d="M325.825 173.983L327.458 169.787C327.6 169.437 327.941 169.28 328.225 169.455L328.268 169.472C328.552 169.647 328.679 170.067 328.537 170.416L326.904 174.613C326.777 174.98 326.422 175.12 326.138 174.963L326.109 174.928C325.811 174.77 325.697 174.333 325.825 173.983Z" fill="#BD3328"/>
<path d="M322.457 172.445C321.278 171.746 320.738 170.085 321.264 168.721C321.789 167.357 323.181 166.833 324.374 167.532C325.552 168.214 326.078 169.893 325.552 171.239C325.027 172.603 323.635 173.145 322.457 172.445Z" fill="#BD3328"/>
<path d="M292.397 151.603L292.766 150.624C293.05 149.889 293.775 149.574 294.371 149.924L295.379 150.519C295.976 150.868 296.231 151.76 295.947 152.494L295.564 153.474C295.28 154.208 294.556 154.523 293.959 154.173L292.965 153.579C292.369 153.229 292.113 152.337 292.397 151.603Z" fill="#BD3328"/>
<path d="M296.994 155.993C296.994 155.993 293.43 155.153 293.43 154.629C293.43 154.087 293.856 152.461 294.708 152.968C295.56 153.475 296.994 155.993 296.994 155.993Z" fill="#FFD0AF"/>
<path d="M339.851 161.64C339.851 161.64 332.354 168.809 326.077 169.736L325.367 167.27C325.367 167.27 333.419 159.944 334.81 159.437C336.202 158.93 339.226 159.979 339.851 161.64Z" fill="#FFD0AF"/>
<path d="M326.078 169.736C326.078 169.736 321.761 170.365 321.25 169.736C320.753 169.124 319.546 166.833 319.673 166.064C319.787 165.277 322.357 166.921 322.584 166.763C322.812 166.606 322.343 166.116 322.286 165.557C322.229 164.997 322.584 164.84 322.584 164.84C322.584 164.84 322.868 165.749 323.408 166.361C323.962 166.991 325.368 167.27 325.368 167.27L326.078 169.736Z" fill="#FFD0AF"/>
<path d="M108.434 238.961V129.607H161.797C155.393 186.907 205.761 238.961 205.761 238.961H108.434Z" fill="#A05CCA"/>
<path d="M158.162 161.414C158.162 161.414 152.397 218.749 169.48 238.962H108.434L158.162 161.414Z" fill="#EC98FA"/>
<path d="M161.797 129.607C161.797 129.607 159.652 211.124 118.245 238.961H31.3125C31.3125 238.961 86.0111 164.823 89.8593 129.607H161.797Z" fill="#A54D9C"/>
<path d="M202.223 238.962H202.138C202.038 238.962 201.967 238.84 202.024 238.717L206.085 228.891L206.866 229.065L202.45 238.805C202.408 238.91 202.322 238.962 202.223 238.962Z" fill="#DD6D22"/>
<path d="M205.758 228.942C205.758 228.802 205.857 228.68 205.971 228.68H206.908C207.022 228.68 207.107 228.802 207.107 228.942C207.107 229.082 207.022 229.187 206.908 229.187H205.971C205.857 229.187 205.758 229.082 205.758 228.942Z" fill="#DD6D22"/>
<path d="M118.714 228.68H119.652C119.765 228.68 119.85 228.802 119.85 228.942C119.85 229.082 119.765 229.187 119.652 229.187L123.599 238.716C123.656 238.839 123.585 238.961 123.486 238.961H123.4C123.301 238.961 123.216 238.909 123.173 238.804L118.814 229.187H118.714C118.601 229.187 118.516 229.082 118.516 228.942C118.516 228.802 118.601 228.68 118.714 228.68Z" fill="#DD6D22"/>
<path d="M31.8693 228.68H32.8064C32.9201 228.68 33.0053 228.802 33.0053 228.942C33.0053 229.082 32.9201 229.187 32.8064 229.187L36.7541 238.716C36.7967 238.839 36.7399 238.961 36.6263 238.961H36.5411C36.4559 238.961 36.3707 238.909 36.3281 238.804L31.9686 229.187H31.8693C31.7557 229.187 31.6562 229.082 31.6562 228.942C31.6562 228.802 31.7557 228.68 31.8693 228.68Z" fill="#DD6D22"/>
<path d="M87.4582 236.845C83.5816 231.407 71.9376 214.446 78.2424 214.883C84.4478 215.303 87.515 231.25 88.3812 236.688C88.8356 236.6 89.29 236.513 89.7302 236.425C89.5314 234.694 89.5314 231.757 91.633 230.865C94.5156 229.623 93.7915 234.432 92.7548 235.936C93.4932 235.866 94.0754 235.883 94.3594 236.111C95.1689 236.723 95.4813 237.562 95.6091 238.069H78.1998C79.1938 237.527 82.332 235.988 84.1496 236.792C84.533 236.95 85.0584 237.02 85.669 237.002C82.9284 235.026 73.9966 231.582 78.2424 230.882C82.1474 230.235 85.0726 235.114 86.0382 236.985C86.4784 236.967 86.9612 236.915 87.4582 236.845Z" fill="#636363"/>
<path d="M227.623 234.816C227.623 234.816 230.292 236.443 231.13 236.88C232.152 237.439 233.175 237.002 233.288 238.96H225.947C225.947 238.96 225.166 237.089 225.592 235.988C226.032 234.869 227.623 234.816 227.623 234.816Z" fill="#1F426D"/>
<path d="M207.415 224.797L213.691 235.708C213.691 235.708 211.718 237.002 209.119 236.215C209.119 236.215 201.948 229.71 202.417 228.014C202.885 226.318 207.415 224.797 207.415 224.797Z" fill="#4F9999"/>
<path d="M187.902 226.809L188.924 238.961C188.924 238.961 182.932 238.961 179.297 238.961C175.676 238.961 175.789 232.142 175.789 232.142L187.902 226.809Z" fill="#5EA7AA"/>
<path d="M181.745 198.15C181.418 200.388 180.694 202.871 179.089 204.025C176.761 205.704 172.288 201.56 169.859 198.989C170.385 198.815 170.981 198.64 171.62 198.465C172.117 197.328 172.728 195.37 172.657 192.835C172.647 192.613 172.633 192.392 172.614 192.17C172.955 191.96 173.58 191.541 174.247 191.104L177.485 193.044C177.485 193.044 177.57 193.551 177.684 194.478C177.74 194.985 177.797 195.632 177.854 196.384C177.873 196.734 177.892 197.113 177.911 197.521C178.005 197.521 178.095 197.521 178.181 197.521C179.43 197.556 180.637 197.748 181.745 198.15Z" fill="#ED985F"/>
<path d="M169.675 224.027C169.675 225.863 167.943 237.561 167.943 237.561H166.495C165.657 234.134 165.87 227.192 165.87 223.345C165.87 219.499 163.158 206.385 164.294 202.695C165.06 200.212 169.86 198.988 169.86 198.988C169.86 198.988 169.675 222.191 169.675 224.027Z" fill="#ED985F"/>
<path d="M210.837 221.598C210.837 221.598 209.091 223.452 206.535 225.97C206.355 226.144 206.175 226.319 205.995 226.494C200.315 232.055 191.355 239.328 188.345 238.437C184.78 237.388 186.229 230.289 187.038 226.931C187.265 226.022 187.422 225.445 187.422 225.445C187.422 224.798 204.05 216.737 207.415 217.856C207.955 218.031 208.423 218.259 208.807 218.503C209.73 219.08 210.227 219.78 210.497 220.374C210.823 221.056 210.837 221.598 210.837 221.598Z" fill="#6BB7BF"/>
<path d="M229.055 235.113C228.643 236.687 224.994 237.439 224.994 237.439C213.094 233.994 207.826 228.731 205.994 226.493C205.512 225.898 205.27 225.531 205.199 225.444L208.806 218.502C209.374 219.143 209.937 219.767 210.496 220.373C220.45 231.074 229.055 235.113 229.055 235.113Z" fill="#6BB7BF"/>
<path d="M168.068 236.689L168.025 238.087H163.098C162.913 238.087 162.828 237.773 162.998 237.65C163.297 237.423 163.68 237.161 164.092 236.968C164.944 236.584 164.915 236.584 166.847 236.689H168.068Z" fill="#ED985F"/>
<path d="M181.744 198.15C181.744 198.15 192.053 210.6 194.893 211.999C197.733 213.398 207.971 216.248 207.971 216.248L207.417 217.856C207.417 217.856 195.66 217.804 193.487 216.895C191.314 215.985 181.147 208.729 180.551 206.281C179.969 203.816 181.744 198.15 181.744 198.15Z" fill="#FFD0AF"/>
<path d="M205.995 226.494C200.315 232.054 191.355 239.328 188.345 238.437C184.78 237.388 186.229 230.288 187.038 226.931L187.904 226.809C187.904 226.809 195.856 229.152 205.995 226.494Z" fill="#5EA7AA"/>
<path d="M225 237.439C213.1 233.994 207.832 228.731 206 226.493C206.014 226.458 206.17 226.196 206.54 225.968C207.96 225.007 212.617 224.22 225 237.439Z" fill="#5EA7AA"/>
<path d="M193.116 210.634C193.116 210.634 192.931 211.386 192.448 212.278C191.909 213.327 190.972 214.586 189.509 215.198L184.908 211.403C184.922 211.561 185.746 216.422 186.2 217.191C186.683 217.96 190.986 223.363 190.986 223.363C190.986 223.363 189.552 227.28 186.626 230.707C183.786 234.03 179.555 236.862 173.917 235.184C173.917 235.184 169.785 220.636 169.856 217.856C169.856 217.856 169.837 217.85 169.799 217.838C169.217 217.663 164.389 216.194 164.105 214.376C164.105 214.376 163.523 208.029 163.849 204.112C163.963 202.678 164.204 201.577 164.645 201.227C166.292 199.933 170.978 198.639 170.978 198.639C170.978 198.639 172.54 200.143 175.664 199.269C176.417 199.059 177.027 198.849 177.51 198.657C179.044 198.062 179.413 197.607 179.413 197.607C179.413 197.607 182.267 197.573 183.843 199.321C185.419 201.07 193.116 210.634 193.116 210.634Z" fill="#35488B"/>
<path d="M192.446 212.278C191.907 213.328 190.97 214.587 189.507 215.199L184.906 211.404C185.588 210.25 190.629 211.701 192.446 212.278Z" fill="#2C3A64"/>
<path d="M190.986 223.363C190.986 223.363 189.552 227.28 186.626 230.707C183.786 234.029 179.555 236.862 173.917 235.183C173.917 235.183 169.785 220.635 169.856 217.855C169.856 217.855 169.837 217.849 169.799 217.838C169.217 217.663 164.389 216.194 164.105 214.376C164.105 214.376 163.523 208.028 163.849 204.112C163.963 202.678 164.204 201.576 164.645 201.227C166.292 199.933 170.978 198.639 170.978 198.639C170.978 198.639 172.54 200.142 175.664 199.268C176.417 199.058 177.027 198.848 177.51 198.656C178.362 198.971 179.455 199.006 180.435 198.988C182.04 198.953 181.585 212.714 182.366 216.649C183.133 220.583 190.986 223.363 190.986 223.363Z" fill="#2C3A64"/>
<path d="M177.85 196.385C177.869 196.734 177.888 197.113 177.907 197.521C176.828 197.119 176.516 194.304 176.516 194.304C176.984 194.182 177.368 194.269 177.68 194.479C177.737 194.986 177.794 195.633 177.85 196.385Z" fill="#FFD0AF"/>
<path d="M178.18 197.52C178.104 197.555 178.014 197.555 177.91 197.52C178.005 197.52 178.095 197.52 178.18 197.52Z" fill="#FFD0AF"/>
<path d="M178.238 194.706C178.238 194.706 172.487 195.528 172.132 191.104C171.777 186.698 170.797 183.83 174.447 183.113C178.11 182.414 178.948 184.005 179.36 185.456C179.772 186.89 179.729 194.391 178.238 194.706Z" fill="#FFD0AF"/>
<path d="M180.494 181.801C180.494 181.801 181.034 184.931 178.947 186.435C176.859 187.956 176.703 189.46 176.036 189.162C175.354 188.865 174.459 189.215 174.843 190.037C175.24 190.859 175.567 191.366 175.666 191.82C175.752 192.275 174.459 194.408 173.622 194.46C172.798 194.513 172.287 195.003 171.492 191.103C170.711 187.222 170.001 184.459 171.747 182.57C174.076 180.053 179.813 182.291 180.494 181.801Z" fill="#2C3A64"/>
<path d="M207.968 216.248C207.968 216.248 210.992 217.699 211.305 217.752C211.617 217.804 211.944 221.896 211.944 221.896L207.414 217.857L207.968 216.248Z" fill="#FFD0AF"/>
<path d="M209.039 227.087C209.309 226.301 213.427 212.994 216.622 212.994C218.34 212.994 219.874 213.484 219.504 216.963C219.149 220.425 215.997 239.275 214.009 238.995C212.035 238.733 209.039 227.087 209.039 227.087Z" fill="#FDC69E"/>
<path d="M223.549 235.691C223.549 235.691 224.273 236.321 225.082 236.741C225.892 237.143 226.573 238.996 226.573 238.996H220.652C220.354 238.314 220.652 235.936 220.652 235.936L223.549 235.691Z" fill="#BD3328"/>
<path d="M222.102 215.355C222.102 215.355 223.692 234.345 223.877 235.936C223.877 235.936 221.406 236.548 220.653 235.936C219.915 235.324 216.805 225.13 216.876 223.294C216.947 221.475 222.102 215.355 222.102 215.355Z" fill="#FDC69E"/>
<path d="M211.609 227.087C211.879 226.301 215.997 212.994 219.192 212.994C220.91 212.994 222.444 213.484 222.075 216.963C221.72 220.425 218.567 239.275 216.579 238.995C214.606 238.733 211.609 227.087 211.609 227.087Z" fill="#A54D9C"/>
<path d="M215.117 229.589C219.959 231.075 217.531 238.419 216.707 238.804C215.898 239.188 209.749 238.436 203.43 238.996C198.204 238.524 199.44 229.834 199.44 229.834C199.44 229.834 210.274 228.085 215.117 229.589Z" fill="#A54D9C"/>
<path d="M215.113 229.589C215.07 233.61 208.112 234.502 202.489 232.876C200.075 232.176 198.584 229.239 199.081 226.249C199.663 222.769 200.046 218.311 198.967 215.356C196.61 208.903 205.954 202.154 205.968 202.154C207.004 202.399 209.546 200.406 210.214 199.863C212.358 199.759 214.317 199.881 214.814 201.105C216.206 204.55 214.814 215.251 214.388 217.926C213.849 221.353 215.169 225.13 215.113 229.589Z" fill="#BD3328"/>
<path d="M220.06 218.52C216.68 216.526 211.781 206.647 211.781 206.647C211.781 206.647 212.917 200.982 213.798 200.51C214.692 200.055 215.8 205.371 218.697 210.441C219.236 211.368 219.62 212.225 219.889 213.012C220.727 213.047 222.09 213.204 222.559 213.781C223.226 214.603 222.289 218.852 220.06 218.52Z" fill="#FFD0AF"/>
<path d="M213.581 200.107C213.581 200.107 214.902 200.125 216.123 203.587C216.123 203.587 214.845 209.689 212.218 209.147C209.577 208.623 213.581 200.107 213.581 200.107Z" fill="#BD3328"/>
<path d="M213.54 189.442C213.923 193.009 211.367 196.104 212.531 197.59C213.71 199.094 213.043 200.685 213.043 200.685C212.972 199.601 212.475 198.622 212.475 198.622C213.596 200.912 210.884 206.158 211.282 211.403C212.006 220.985 210.046 222.489 209.109 222.681C208.783 222.751 208.47 222.874 208.186 223.101C206.312 224.657 202.492 225.549 199.056 223.031C197.792 222.104 195.932 218.8 195.932 218.8C195.562 220.024 196.429 221.702 196.429 221.702C196.429 221.702 194.299 218.66 195.804 215.6C197.295 212.557 196.045 211.998 196.272 205.179C196.5 198.342 199.084 198.919 200.149 197.59C201.214 196.278 201.37 187.431 204.224 184.861C205.801 183.444 208.967 184.179 208.967 184.179C211.878 184.284 213.284 186.976 213.54 189.442Z" fill="#233862"/>
<path d="M267.399 238.052H248.826C248.826 238.052 241.768 231.093 245.474 220.916C246.866 217.349 246.17 214.289 246.17 214.289C246.17 214.289 248.882 216.195 249.578 218.154C249.578 218.154 253.171 214.429 253.171 210.722C253.171 207.033 251.197 205.599 253.171 201.473C253.171 201.473 253.284 205.04 254.662 206.316C256.053 207.593 260.91 213.048 259.532 219.762C258.141 226.477 263.863 226.04 263.807 221.563C263.75 217.07 263.281 215.356 264.446 213.712C264.446 213.712 263.864 216.72 265.482 218.993C267.101 221.266 271.333 230.621 267.399 238.052Z" fill="#BD3328"/>
<path d="M265.992 238.051H251.565C251.565 238.051 245.885 233.785 248.058 227.49C249.194 223.643 251.224 223.399 251.565 219.762C251.565 219.762 252.843 223.853 251.565 227.892C250.287 231.949 254.164 232.386 254.334 229.623C254.49 226.843 252.886 225.532 254.121 223.381C254.121 223.381 253.951 225.829 255.229 226.878C256.507 227.927 259.063 231.11 258.395 233.75C257.742 236.408 263.706 235.271 262.797 230.463C261.903 225.654 263.919 225.34 263.919 225.34C263.919 225.34 262.712 226.738 263.649 229.186C264.601 231.634 267.838 233.418 265.992 238.051Z" fill="#FDC69E"/>
<path d="M411.574 238.997H0.426001C0.184601 238.997 0 238.769 0 238.472V238.402C0 238.104 0.184601 237.859 0.426001 237.859H411.574C411.815 237.859 412 238.104 412 238.402V238.472C412 238.769 411.815 238.997 411.574 238.997Z" fill="#2E3552"/>
<defs>
<linearGradient id="paint0_linear_202_1108" x1="46.7887" y1="197.233" x2="269.829" y2="-68.2285" gradientUnits="userSpaceOnUse">
<stop stop-color="#C6C1FF"/>
<stop offset="1" stop-color="#FEC1FF"/>
</linearGradient>
</defs>
</svg>
